<svg width="18" height="18" viewBox="0 0 18 18" fill="none" xmlns="http://www.w3.org/2000/svg">
<path d="M9 18C13.9706 18 18 13.9705 18 9C18 4.02943 13.9706 0 9 0C4.02944 0 0 4.02943 0 9C0 13.9705 4.02944 18 9 18Z" fill="#EA4444" fill-opacity="0.12"/>
<path fill-rule="evenodd" clip-rule="evenodd" d="M13.7094 8.01374C14.096 8.40036 14.096 9.0272 13.7094 9.41382C13.3227 9.80043 12.6959 9.80044 12.3093 9.41382L9.99004 7.09457V13.3328C9.99004 13.8795 9.54681 14.3228 9.00004 14.3228C8.45328 14.3228 8.01004 13.8795 8.01004 13.3328V7.09454L5.69077 9.41382C5.30415 9.80043 4.67732 9.80043 4.2907 9.41382C3.90408 9.0272 3.90408 8.40036 4.2907 8.01374L7.59996 4.70449L8.29292 4.01152C8.68345 3.621 9.31661 3.621 9.70714 4.01152L10.4001 4.70449L13.7094 8.01374Z" fill="#EA4444"/>
</svg>
