<svg width="18" height="18" viewBox="0 0 18 18" fill="none" xmlns="http://www.w3.org/2000/svg">
<path d="M9 18C13.9706 18 18 13.9705 18 9C18 4.02943 13.9706 0 9 0C4.02944 0 0 4.02943 0 9C0 13.9705 4.02944 18 9 18Z" fill="#4F89F8" fill-opacity="0.12"/>
<path fill-rule="evenodd" clip-rule="evenodd" d="M4.2907 9.98625C3.90408 9.59964 3.90408 8.9728 4.2907 8.58618C4.67732 8.19956 5.30415 8.19956 5.69077 8.58618L8.01002 10.9054V4.66723C8.01002 4.12047 8.45326 3.67723 9.00002 3.67723C9.54678 3.67723 9.99002 4.12047 9.99002 4.66723V10.9055L12.3093 8.58618C12.6959 8.19956 13.3227 8.19956 13.7094 8.58618C14.096 8.9728 14.096 9.59964 13.7094 9.98625L10.4001 13.2955L9.70714 13.9885C9.31661 14.379 8.68345 14.379 8.29292 13.9885L7.59996 13.2955L4.2907 9.98625Z" fill="#4F89F8"/>
</svg>
