<svg width="49" height="49" viewBox="0 0 49 49" fill="none" xmlns="http://www.w3.org/2000/svg">
<g clip-path="url(#clip0)">
<rect x="0.962036" y="0.695923" width="48" height="48" fill="white"/>
<path fill-rule="evenodd" clip-rule="evenodd" d="M29.962 33.6959H19.962C18.8575 33.6959 17.962 32.8005 17.962 31.6959V17.6959C17.962 16.5914 18.8575 15.6959 19.962 15.6959H26.2605C26.7146 15.6959 27.1552 15.8505 27.5099 16.1342L31.2114 19.0954C31.6859 19.475 31.962 20.0496 31.962 20.6572V21.1959V31.6959C31.962 32.8005 31.0666 33.6959 29.962 33.6959ZM25.962 21.1959V17.6959H19.962V31.6959H29.962V21.1959H25.962ZM27.439 22.6444L28.8533 24.0586L27.439 25.4728L26.0248 24.0586L27.439 22.6444ZM26.7277 26.1842L25.3135 24.77L22.0608 28.0227L21.7779 29.7198L23.475 29.4369L26.7277 26.1842Z" fill="#5A6D7B"/>
</g>
<defs>
<clipPath id="clip0">
<rect width="48" height="48" fill="white" transform="translate(0.962036 0.695923)"/>
</clipPath>
</defs>
</svg>
