<svg width="24" height="24" viewBox="0 0 24 24" fill="none" xmlns="http://www.w3.org/2000/svg">
<g clip-path="url(#clip0)">
<path fill-rule="evenodd" clip-rule="evenodd" d="M16.9619 21H6.96191C5.85734 21 4.96191 20.1046 4.96191 19V5C4.96191 3.89543 5.85734 3 6.96191 3H13.2604C13.7145 3 14.1551 3.15456 14.5097 3.43826L18.2113 6.39951C18.6857 6.77906 18.9619 7.35368 18.9619 7.96125V8.5V19C18.9619 20.1046 18.0665 21 16.9619 21ZM12.9619 8.5V5H6.96191V19H16.9619V8.5H12.9619ZM14.4389 9.9485L15.8531 11.3627L14.4389 12.7769L13.0247 11.3627L14.4389 9.9485ZM13.7275 13.4883L12.3133 12.0741L9.06064 15.3268L8.7778 17.0238L10.4749 16.741L13.7275 13.4883Z" fill="#5A6D7B"/>
</g>
<defs>
<clipPath id="clip0">
<rect width="24" height="24" fill="white"/>
</clipPath>
</defs>
</svg>
