<svg width="49" height="49" viewBox="0 0 49 49" fill="none" xmlns="http://www.w3.org/2000/svg">
<g clip-path="url(#clip0)">
<path fill-rule="evenodd" clip-rule="evenodd" d="M19.962 33.6959H29.962C31.0666 33.6959 31.962 32.8005 31.962 31.6959V21.1959V20.6572C31.962 20.0496 31.6859 19.475 31.2114 19.0954L27.5099 16.1342C27.1552 15.8505 26.7146 15.6959 26.2605 15.6959H19.962C18.8575 15.6959 17.962 16.5914 17.962 17.6959V31.6959C17.962 32.8005 18.8575 33.6959 19.962 33.6959ZM25.962 17.6959V21.1959H29.962V31.6959H19.962V17.6959H25.962Z" fill="#5A6D7B"/>
<path fill-rule="evenodd" clip-rule="evenodd" d="M25.962 22.6959H23.962V24.6959H21.962V26.6959H23.962V28.6959H25.962V26.6959H27.962V24.6959H25.962V22.6959Z" fill="#5A6D7B"/>
</g>
<defs>
<clipPath id="clip0">
<rect width="48" height="48" fill="white" transform="translate(0.962036 0.695923)"/>
</clipPath>
</defs>
</svg>
