<svg width="24" height="24" viewBox="0 0 24 24" fill="none" xmlns="http://www.w3.org/2000/svg">
<path fill-rule="evenodd" clip-rule="evenodd" d="M17.5 12.5044V15.0042H19.5V12.5044H22V10.5044H19.5V8.00415H17.5V10.5044H15V12.5044H17.5ZM2 20.5042H4C4 17.1904 6.68629 14.5042 10 14.5042C13.3137 14.5042 16 17.1904 16 20.5042H18C18 16.0859 14.4183 12.5042 10 12.5042C5.58172 12.5042 2 16.0859 2 20.5042Z" fill="#5A6D7B"/>
<path fill-rule="evenodd" clip-rule="evenodd" d="M10 12.4958C12.4853 12.4958 14.5 10.4811 14.5 7.99585C14.5 5.51057 12.4853 3.49585 10 3.49585C7.51472 3.49585 5.5 5.51057 5.5 7.99585C5.5 10.4811 7.51472 12.4958 10 12.4958ZM10 10.4958C11.3807 10.4958 12.5 9.37656 12.5 7.99585C12.5 6.61514 11.3807 5.49585 10 5.49585C8.61929 5.49585 7.5 6.61514 7.5 7.99585C7.5 9.37656 8.61929 10.4958 10 10.4958Z" fill="#5A6D7B"/>
</svg>
