<svg width="49" height="49" viewBox="0 0 49 49" fill="none" xmlns="http://www.w3.org/2000/svg">
<g clip-path="url(#clip0)">
<rect x="0.962036" y="0.195801" width="48" height="48" fill="white"/>
<path fill-rule="evenodd" clip-rule="evenodd" d="M34.962 24.1958C34.962 29.7186 30.4849 34.1958 24.962 34.1958C19.4392 34.1958 14.962 29.7186 14.962 24.1958C14.962 18.673 19.4392 14.1958 24.962 14.1958C30.4849 14.1958 34.962 18.673 34.962 24.1958ZM32.962 24.1958C32.962 28.6141 29.3803 32.1958 24.962 32.1958C20.5438 32.1958 16.962 28.6141 16.962 24.1958C16.962 19.7775 20.5438 16.1958 24.962 16.1958C29.3803 16.1958 32.962 19.7775 32.962 24.1958ZM21.462 23.1958C22.2905 23.1958 22.962 22.5242 22.962 21.6958C22.962 20.8674 22.2905 20.1958 21.462 20.1958C20.6336 20.1958 19.962 20.8674 19.962 21.6958C19.962 22.5242 20.6336 23.1958 21.462 23.1958ZM29.962 21.6958C29.962 22.5242 29.2905 23.1958 28.462 23.1958C27.6336 23.1958 26.962 22.5242 26.962 21.6958C26.962 20.8674 27.6336 20.1958 28.462 20.1958C29.2905 20.1958 29.962 20.8674 29.962 21.6958ZM24.962 25.1958C23.0982 25.1958 21.5321 26.4706 21.0881 28.1958H28.836C28.392 26.4706 26.8259 25.1958 24.962 25.1958Z" fill="#5A6D7B"/>
</g>
<defs>
<clipPath id="clip0">
<rect width="48" height="48" fill="white" transform="translate(0.962036 0.195801)"/>
</clipPath>
</defs>
</svg>
