<svg width="24" height="24" viewBox="0 0 24 24" fill="none" xmlns="http://www.w3.org/2000/svg">
<path fill-rule="evenodd" clip-rule="evenodd" d="M6.79455 4.21268C5.95376 4.21269 5.20274 4.73856 4.91518 5.52864L3.0012 10.7873H3.0001V10.7903L3 10.7905L3.0001 10.7906V16.7872V17.7873V18.7872C3.0001 19.3395 3.44782 19.7872 4.0001 19.7872H6.0001C6.55239 19.7872 7.0001 19.3395 7.0001 18.7872V17.7873H17.0001V18.7872C17.0001 19.3395 17.4478 19.7872 18.0001 19.7872H20.0001C20.5524 19.7872 21.0001 19.3395 21.0001 18.7872V17.7873V16.7872V10.7907V10.7873H20.9989L19.0849 5.52876C18.8031 4.75452 18.0763 4.23401 17.2561 4.21343V4.21265H12.0041H6.79863V4.21268L6.79455 4.21268ZM6.79863 6.20151L5.12955 10.7873H18.8705L17.2055 6.21265H6.79863V6.20151ZM6.5001 15.7872C7.32853 15.7872 8.0001 15.1156 8.0001 14.2872C8.0001 13.4588 7.32853 12.7872 6.5001 12.7872C5.67168 12.7872 5.0001 13.4588 5.0001 14.2872C5.0001 15.1156 5.67168 15.7872 6.5001 15.7872ZM17.5001 12.7872C18.3285 12.7872 19.0001 13.4588 19.0001 14.2872C19.0001 15.1156 18.3285 15.7872 17.5001 15.7872C16.6717 15.7872 16.0001 15.1156 16.0001 14.2872C16.0001 13.4588 16.6717 12.7872 17.5001 12.7872ZM15.0001 13.7872H9.0001V14.7872H15.0001V13.7872Z" fill="#5A6D7B"/>
</svg>
