<svg width="24" height="24" viewBox="0 0 24 24" fill="none" xmlns="http://www.w3.org/2000/svg">
<path fill-rule="evenodd" clip-rule="evenodd" d="M4 5C4 3.89543 4.89543 3 6 3H18C19.1046 3 20 3.89543 20 5V19C20 20.1046 19.1046 21 18 21H6C4.89543 21 4 20.1046 4 19V5ZM6 5H18V7H6V5ZM6 9V19H18V9H6ZM17.0051 15.7852H13.0051V17.2852H17.0051V15.7852ZM7.75732 17.071L14.8284 9.99998L16.2426 11.4142L9.17154 18.4853L7.75732 17.071ZM11 11.25H9.75V10H8.25V11.25H7V12.75H8.25V14H9.75V12.75H11V11.25Z" fill="#5A6D7B"/>
</svg>
