<svg width="24" height="24" viewBox="0 0 24 24" fill="none" xmlns="http://www.w3.org/2000/svg">
<path fill-rule="evenodd" clip-rule="evenodd" d="M8 2H10.5V5H13.5063V2H16.0063V5H19C20.1046 5 21 5.89543 21 7V20C21 21.1046 20.1046 22 19 22H5C3.89543 22 3 21.1046 3 20V7C3 5.89543 3.89543 5 5 5H8V2ZM19 9H5V20H19V9ZM9 13.3438V11.3438H7V13.3438H9ZM13 11.3438H11V13.3438H13V11.3438ZM15 11.3438H17V13.3438H15V11.3438ZM9 17.3438V15.3438H7V17.3438H9ZM11 15.3438H13V17.3438H11V15.3438ZM17 15.3438H15V17.3438H17V15.3438Z" fill="#5A6D7B"/>
</svg>
