<svg width="49" height="49" viewBox="0 0 49 49" fill="none" xmlns="http://www.w3.org/2000/svg">
<g clip-path="url(#clip0)">
<rect x="0.962036" y="0.695923" width="48" height="48" fill="white"/>
<path fill-rule="evenodd" clip-rule="evenodd" d="M20.962 14.6959H23.462V17.6959H26.4684V14.6959H28.9684V17.6959H31.962C33.0666 17.6959 33.962 18.5914 33.962 19.6959V32.6959C33.962 33.8005 33.0666 34.6959 31.962 34.6959H17.962C16.8575 34.6959 15.962 33.8005 15.962 32.6959V19.6959C15.962 18.5914 16.8575 17.6959 17.962 17.6959H20.962V14.6959ZM31.962 21.6959H17.962V32.6959H31.962V21.6959ZM21.962 26.0397V24.0397H19.962V26.0397H21.962ZM25.962 24.0397H23.962V26.0397H25.962V24.0397ZM27.962 24.0397H29.962V26.0397H27.962V24.0397ZM21.962 30.0397V28.0397H19.962V30.0397H21.962ZM23.962 28.0397H25.962V30.0397H23.962V28.0397ZM29.962 28.0397H27.962V30.0397H29.962V28.0397Z" fill="#5A6D7B"/>
</g>
<defs>
<clipPath id="clip0">
<rect width="48" height="48" fill="white" transform="translate(0.962036 0.695923)"/>
</clipPath>
</defs>
</svg>
