<svg width="24" height="24" viewBox="0 0 24 24" fill="none" xmlns="http://www.w3.org/2000/svg">
<path fill-rule="evenodd" clip-rule="evenodd" d="M6 3C4.89543 3 4 3.89543 4 5V19C4 20.1046 4.89543 21 6 21H18C19.1046 21 20 20.1046 20 19V5C20 3.89543 19.1046 3 18 3H6ZM18 5H6V19H18V5ZM13.0051 15.7852H17.0051V17.2852H13.0051V15.7852ZM14.8284 9.99998L7.75732 17.071L9.17154 18.4853L16.2426 11.4142L14.8284 9.99998ZM9.75 11.25H11V12.75H9.75V14H8.25V12.75H7V11.25H8.25V10H9.75V11.25Z" fill="#5A6D7B"/>
<rect x="6" y="7" width="12" height="2" fill="#5A6D7B"/>
</svg>
