<svg width="48" height="49" viewBox="0 0 48 49" fill="none" xmlns="http://www.w3.org/2000/svg">
<g clip-path="url(#clip0)">
<rect y="0.0351562" width="48" height="48" fill="white"/>
<path fill-rule="evenodd" clip-rule="evenodd" d="M34 24.0352C34 29.558 29.5228 34.0352 24 34.0352C18.4772 34.0352 14 29.558 14 24.0352C14 18.5123 18.4772 14.0352 24 14.0352C29.5228 14.0352 34 18.5123 34 24.0352ZM32 24.0352C32 28.4534 28.4183 32.0352 24 32.0352C19.5817 32.0352 16 28.4534 16 24.0352C16 19.6169 19.5817 16.0352 24 16.0352C28.4183 16.0352 32 19.6169 32 24.0352ZM28.6067 20.0352L30.0209 21.4494L22.2427 29.2275L22.2427 29.2275L22.2426 29.2275L18 24.9849L19.4142 23.5707L22.2427 26.3991L28.6067 20.0352Z" fill="#5A6D7B"/>
</g>
<defs>
<clipPath id="clip0">
<rect width="48" height="48" fill="white" transform="translate(0 0.0351562)"/>
</clipPath>
</defs>
</svg>
