<svg width="49" height="49" viewBox="0 0 49 49" fill="none" xmlns="http://www.w3.org/2000/svg">
<g clip-path="url(#clip0)">
<path fill-rule="evenodd" clip-rule="evenodd" d="M34.3031 24.1777C34.3031 29.7006 29.8259 34.1777 24.3031 34.1777C18.7803 34.1777 14.3031 29.7006 14.3031 24.1777C14.3031 18.6549 18.7803 14.1777 24.3031 14.1777C29.8259 14.1777 34.3031 18.6549 34.3031 24.1777ZM32.3031 24.1777C32.3031 28.596 28.7214 32.1777 24.3031 32.1777C19.8848 32.1777 16.3031 28.596 16.3031 24.1777C16.3031 19.7595 19.8848 16.1777 24.3031 16.1777C28.7214 16.1777 32.3031 19.7595 32.3031 24.1777ZM28.9098 20.1777L30.324 21.5919L22.5458 29.3701L22.5458 29.3701L22.5457 29.3701L18.3031 25.1275L19.7173 23.7133L22.5458 26.5417L28.9098 20.1777Z" fill="#5A6D7B"/>
</g>
<defs>
<clipPath id="clip0">
<rect width="48" height="48" fill="white" transform="translate(0.303101 0.177734)"/>
</clipPath>
</defs>
</svg>
