<svg width="48" height="48" viewBox="0 0 48 48" fill="none" xmlns="http://www.w3.org/2000/svg">
<rect width="48" height="48" fill="white"/>
<path fill-rule="evenodd" clip-rule="evenodd" d="M29 33H19C17.8954 33 17 32.1046 17 31V17C17 15.8954 17.8954 15 19 15H25.2984C25.7526 15 26.1932 15.1546 26.5478 15.4383L30.2494 18.3995C30.7238 18.7791 31 19.3537 31 19.9612V20.5V31C31 32.1046 30.1046 33 29 33ZM25 20.5V17H19V31H29V20.5H25ZM26.477 21.9485L27.8912 23.3627L26.477 24.7769L25.0628 23.3627L26.477 21.9485ZM25.7656 25.4883L24.3514 24.0741L21.0987 27.3268L20.8159 29.0238L22.5129 28.741L25.7656 25.4883Z" fill="#5A6D7B"/>
</svg>
