<svg width="24" height="24" viewBox="0 0 24 24" fill="none" xmlns="http://www.w3.org/2000/svg">
<path fill-rule="evenodd" clip-rule="evenodd" d="M17 21H7C5.89543 21 5 20.1046 5 19V5C5 3.89543 5.89543 3 7 3H13.2984C13.7526 3 14.1932 3.15456 14.5478 3.43826L18.2494 6.39951C18.7238 6.77906 19 7.35368 19 7.96125V8.5V19C19 20.1046 18.1046 21 17 21ZM13 8.5V5H7V19H17V8.5H13ZM14.477 9.9485L15.8912 11.3627L14.477 12.7769L13.0628 11.3627L14.477 9.9485ZM13.7656 13.4883L12.3514 12.0741L9.09873 15.3268L8.81589 17.0238L10.5129 16.741L13.7656 13.4883Z" fill="#5A6D7B"/>
</svg>
