<svg width="49" height="49" viewBox="0 0 49 49" fill="none" xmlns="http://www.w3.org/2000/svg">
<g clip-path="url(#clip0)">
<rect x="0.962036" y="0.695923" width="48" height="48" fill="white"/>
<path fill-rule="evenodd" clip-rule="evenodd" d="M23.462 30.6959C22.3575 30.6959 21.462 29.8005 21.462 28.6959V17.6959C21.462 16.5914 22.3575 15.6959 23.462 15.6959H26.7605C27.2146 15.6959 27.6552 15.8505 28.0099 16.1342L31.7114 19.0954C32.1859 19.475 32.462 20.0496 32.462 20.6572V28.6959C32.462 29.8005 31.5666 30.6959 30.462 30.6959H23.462ZM23.462 28.6959V17.6959H26.9393L26.962 17.7151V20.7664H30.462V28.6959H23.462ZM19.462 18.6959H19.4659V20.6959H19.462V31.6959H26.462V31.692H28.462V31.6959C28.462 32.8005 27.5666 33.6959 26.462 33.6959H19.462C18.3575 33.6959 17.462 32.8005 17.462 31.6959V20.6959C17.462 19.5914 18.3575 18.6959 19.462 18.6959Z" fill="#5A6D7B"/>
</g>
<defs>
<clipPath id="clip0">
<rect width="48" height="48" fill="white" transform="translate(0.962036 0.695923)"/>
</clipPath>
</defs>
</svg>
