<svg width="24" height="24" viewBox="0 0 24 24" fill="none" xmlns="http://www.w3.org/2000/svg">
<g clip-path="url(#clip0)">
<path fill-rule="evenodd" clip-rule="evenodd" d="M10.4619 18C9.35735 18 8.46191 17.1046 8.46191 16V5C8.46191 3.89543 9.35735 3 10.4619 3H13.7604C14.2145 3 14.6551 3.15456 15.0097 3.43826L18.7113 6.39951C19.1857 6.77906 19.4619 7.35368 19.4619 7.96125V16C19.4619 17.1046 18.5665 18 17.4619 18H10.4619ZM10.4619 16V5H13.9391L13.9619 5.01922V8.07048H17.4619V16H10.4619ZM6.46191 6H6.46582V8H6.46191V19H13.4619V18.9961H15.4619V19C15.4619 20.1046 14.5665 21 13.4619 21H6.46191C5.35735 21 4.46191 20.1046 4.46191 19V8C4.46191 6.89543 5.35735 6 6.46191 6Z" fill="#5A6D7B"/>
</g>
<defs>
<clipPath id="clip0">
<rect width="24" height="24" fill="white"/>
</clipPath>
</defs>
</svg>
