<svg width="49" height="49" viewBox="0 0 49 49" fill="none" xmlns="http://www.w3.org/2000/svg">
<g clip-path="url(#clip0)">
<rect x="0.53009" y="0.726807" width="48" height="48" fill="white"/>
<path fill-rule="evenodd" clip-rule="evenodd" d="M34.5301 24.7268C34.5301 30.2497 30.0529 34.7268 24.5301 34.7268C19.0072 34.7268 14.5301 30.2497 14.5301 24.7268C14.5301 19.204 19.0072 14.7268 24.5301 14.7268C30.0529 14.7268 34.5301 19.204 34.5301 24.7268ZM32.5301 24.7268C32.5301 29.1451 28.9484 32.7268 24.5301 32.7268C20.1118 32.7268 16.5301 29.1451 16.5301 24.7268C16.5301 20.3085 20.1118 16.7268 24.5301 16.7268C28.9484 16.7268 32.5301 20.3085 32.5301 24.7268ZM21.0301 23.7268C21.8585 23.7268 22.5301 23.0552 22.5301 22.2268C22.5301 21.3984 21.8585 20.7268 21.0301 20.7268C20.2017 20.7268 19.5301 21.3984 19.5301 22.2268C19.5301 23.0552 20.2017 23.7268 21.0301 23.7268ZM29.5301 22.2268C29.5301 23.0552 28.8585 23.7268 28.0301 23.7268C27.2017 23.7268 26.5301 23.0552 26.5301 22.2268C26.5301 21.3984 27.2017 20.7268 28.0301 20.7268C28.8585 20.7268 29.5301 21.3984 29.5301 22.2268ZM27.5301 28.7268C27.5301 27.07 26.1869 25.7268 24.5301 25.7268C22.8732 25.7268 21.5301 27.07 21.5301 28.7268H27.5301Z" fill="#364754"/>
</g>
<defs>
<clipPath id="clip0">
<rect width="48" height="48" fill="white" transform="translate(0.53009 0.726807)"/>
</clipPath>
</defs>
</svg>
