<svg width="24" height="24" viewBox="0 0 24 24" fill="none" xmlns="http://www.w3.org/2000/svg">
<g clip-path="url(#clip0)">
<path fill-rule="evenodd" clip-rule="evenodd" d="M9.96191 3C8.85734 3 7.96191 3.89543 7.96191 5H4.96191H3.96191V7H4.96191V19C4.96191 20.1046 5.85734 21 6.96191 21H16.9619C18.0665 21 18.9619 20.1046 18.9619 19V7H19.9619V5H18.9619H15.9619C15.9619 3.89543 15.0665 3 13.9619 3H9.96191ZM9.96191 7H6.96191V19H16.9619V7H13.9619H9.96191ZM10.9619 9V17H8.96191V9H10.9619ZM14.9619 17V9H12.9619V17H14.9619Z" fill="#5A6D7B"/>
</g>
<defs>
<clipPath id="clip0">
<rect width="24" height="24" fill="white"/>
</clipPath>
</defs>
</svg>
