<svg width="49" height="49" viewBox="0 0 49 49" fill="none" xmlns="http://www.w3.org/2000/svg">
<g clip-path="url(#clip0)">
<path fill-rule="evenodd" clip-rule="evenodd" d="M22.962 15.6959C21.8575 15.6959 20.962 16.5914 20.962 17.6959H17.962H16.962V19.6959H17.962V31.6959C17.962 32.8005 18.8575 33.6959 19.962 33.6959H29.962C31.0666 33.6959 31.962 32.8005 31.962 31.6959V19.6959H32.962V17.6959H31.962H28.962C28.962 16.5914 28.0666 15.6959 26.962 15.6959H22.962ZM22.962 19.6959H19.962V31.6959H29.962V19.6959H26.962H22.962ZM23.962 21.6959V29.6959H21.962V21.6959H23.962ZM27.962 29.6959V21.6959H25.962V29.6959H27.962Z" fill="#5A6D7B"/>
</g>
<defs>
<clipPath id="clip0">
<rect width="48" height="48" fill="white" transform="translate(0.962036 0.695923)"/>
</clipPath>
</defs>
</svg>
