<svg width="49" height="49" viewBox="0 0 49 49" fill="none" xmlns="http://www.w3.org/2000/svg">
<g clip-path="url(#clip0)">
<rect x="0.328369" y="0.177734" width="48" height="48" fill="white"/>
<path fill-rule="evenodd" clip-rule="evenodd" d="M29.3284 33.1777H19.3284C18.2238 33.1777 17.3284 32.2823 17.3284 31.1777V17.1777C17.3284 16.0732 18.2238 15.1777 19.3284 15.1777H25.6268C26.081 15.1777 26.5216 15.3323 26.8762 15.616L30.5778 18.5772C31.0522 18.9568 31.3284 19.5314 31.3284 20.139V20.6777V31.1777C31.3284 32.2823 30.4329 33.1777 29.3284 33.1777ZM25.3284 20.6777V17.1777H19.3284V31.1777H29.3284V20.6777H25.3284ZM27.0074 22.1777L28.4216 23.5919L24.8861 27.1275L23.4719 28.5417L22.0576 27.1275L20.6434 25.7133L22.0576 24.2991L23.4719 25.7133L27.0074 22.1777Z" fill="#5A6D7B"/>
</g>
<defs>
<clipPath id="clip0">
<rect width="48" height="48" fill="white" transform="translate(0.328369 0.177734)"/>
</clipPath>
</defs>
</svg>
