<svg width="24" height="24" viewBox="0 0 24 24" fill="none" xmlns="http://www.w3.org/2000/svg">
<g clip-path="url(#clip0)">
<rect width="48" height="48" fill="white"/>
<path fill-rule="evenodd" clip-rule="evenodd" d="M17 21H7C5.89543 21 5 20.1046 5 19V5C5 3.89543 5.89543 3 7 3H13.2984C13.7526 3 14.1932 3.15456 14.5478 3.43826L18.2494 6.39951C18.7238 6.77906 19 7.35368 19 7.96125V8.5V19C19 20.1046 18.1046 21 17 21ZM13 8.5V5H7V19H17V8.5H13ZM10 12.9912L8 15V17H16V15L13.5 12L11 13.9824L10 12.9912ZM11 10C11 10.5523 10.5523 11 10 11C9.44772 11 9 10.5523 9 10C9 9.44772 9.44772 9 10 9C10.5523 9 11 9.44772 11 10Z" fill="#5A6D7B"/>
</g>
<defs>
<clipPath id="clip0">
<rect width="24" height="24" fill="white"/>
</clipPath>
</defs>
</svg>
