<svg width="24" height="24" viewBox="0 0 24 24" fill="none" xmlns="http://www.w3.org/2000/svg">
<g clip-path="url(#clip0)">
<rect width="48" height="48" fill="white"/>
<path fill-rule="evenodd" clip-rule="evenodd" d="M17 21H7C5.89543 21 5 20.1046 5 19V5C5 3.89543 5.89543 3 7 3H13.2984C13.7526 3 14.1932 3.15456 14.5478 3.43826L18.2494 6.39951C18.7238 6.77906 19 7.35368 19 7.96125V8.5V19C19 20.1046 18.1046 21 17 21ZM13 8.5V5H7V19H17V8.5H13ZM14.679 10L16.0932 11.4142L12.5577 14.9497L11.1435 16.364L9.72928 14.9497L8.31506 13.5355L9.72928 12.1213L11.1435 13.5355L14.679 10Z" fill="#5A6D7B"/>
</g>
<defs>
<clipPath id="clip0">
<rect width="24" height="24" fill="white"/>
</clipPath>
</defs>
</svg>
