<svg width="49" height="49" viewBox="0 0 49 49" fill="none" xmlns="http://www.w3.org/2000/svg">
<g clip-path="url(#clip0)">
<rect x="0.328369" y="0.177734" width="48" height="48" fill="white"/>
<path fill-rule="evenodd" clip-rule="evenodd" d="M29.3284 33.1777H19.3284C18.2238 33.1777 17.3284 32.2823 17.3284 31.1777V17.1777C17.3284 16.0732 18.2238 15.1777 19.3284 15.1777H25.6268C26.081 15.1777 26.5216 15.3323 26.8762 15.616L30.5778 18.5772C31.0522 18.9568 31.3284 19.5314 31.3284 20.139V20.6777V31.1777C31.3284 32.2823 30.4329 33.1777 29.3284 33.1777ZM25.3284 20.6777V17.1777H19.3284V31.1777H29.3284V20.6777H25.3284ZM22.3284 25.1689L20.3284 27.1777V29.1777H28.3284V27.1777L25.8284 24.1777L23.3284 26.1601L22.3284 25.1689ZM23.3284 22.1777C23.3284 22.73 22.8807 23.1777 22.3284 23.1777C21.7761 23.1777 21.3284 22.73 21.3284 22.1777C21.3284 21.6254 21.7761 21.1777 22.3284 21.1777C22.8807 21.1777 23.3284 21.6254 23.3284 22.1777Z" fill="#5A6D7B"/>
</g>
<defs>
<clipPath id="clip0">
<rect width="48" height="48" fill="white" transform="translate(0.328369 0.177734)"/>
</clipPath>
</defs>
</svg>
