<svg width="48" height="48" viewBox="0 0 48 48" fill="none" xmlns="http://www.w3.org/2000/svg">
<path fill-rule="evenodd" clip-rule="evenodd" d="M24 30C25.1046 30 26 30.8954 26 32C26 33.1046 25.1046 34 24 34C22.8954 34 22 33.1046 22 32C22 30.8954 22.8954 30 24 30ZM24 22C25.1046 22 26 22.8954 26 24C26 25.1046 25.1046 26 24 26C22.8954 26 22 25.1046 22 24C22 22.8954 22.8954 22 24 22ZM26 16C26 14.8954 25.1046 14 24 14C22.8954 14 22 14.8954 22 16C22 17.1046 22.8954 18 24 18C25.1046 18 26 17.1046 26 16Z" fill="#5A6D7B"/>
</svg>
