<svg width="49" height="48" viewBox="0 0 49 48" fill="none" xmlns="http://www.w3.org/2000/svg">
<g clip-path="url(#clip0)">
<rect x="0.513672" width="48" height="48" fill="white"/>
<path fill-rule="evenodd" clip-rule="evenodd" d="M17.5886 20.2415C16.3087 21.2504 15.2544 22.5327 14.5137 24.0003C16.3573 27.6526 20.1429 30.1573 24.5136 30.1573C25.4339 30.1573 26.3282 30.0463 27.184 29.8368L25.4567 28.1096C25.1466 28.1411 24.832 28.1573 24.5136 28.1573C21.2979 28.1573 18.4649 26.5069 16.8201 24.0003C17.4108 23.1 18.1548 22.3102 19.0147 21.6676L17.5886 20.2415ZM21.2325 23.8854C21.2312 23.9235 21.2306 23.9618 21.2306 24.0002C21.2306 25.855 22.7342 27.3587 24.589 27.3587C24.6275 27.3587 24.6657 27.358 24.7038 27.3567L21.2325 23.8854ZM27.9378 24.2579L24.3313 20.6515C24.4164 20.645 24.5023 20.6417 24.589 20.6417C26.4439 20.6417 27.9475 22.1454 27.9475 24.0002C27.9475 24.0869 27.9442 24.1728 27.9378 24.2579ZM30.0126 26.3328C30.8726 25.6902 31.6166 24.9003 32.2073 24.0001C30.5625 21.4934 27.7294 19.843 24.5137 19.843C24.1954 19.843 23.8807 19.8592 23.5706 19.8908L21.8433 18.1635C22.6991 17.9541 23.5934 17.843 24.5137 17.843C28.8844 17.843 32.6701 20.3477 34.5137 24C33.7729 25.4676 32.7186 26.7499 31.4387 27.7589L30.0126 26.3328Z" fill="#5A6D7B"/>
<rect x="17.3893" y="15.2925" width="22.3896" height="2.23896" transform="rotate(45 17.3893 15.2925)" fill="#5A6D7B"/>
</g>
<defs>
<clipPath id="clip0">
<rect width="48" height="48" fill="white" transform="translate(0.513672)"/>
</clipPath>
</defs>
</svg>
