<svg width="49" height="48" viewBox="0 0 49 48" fill="none" xmlns="http://www.w3.org/2000/svg">
<g clip-path="url(#clip0)">
<rect x="0.0847778" width="48" height="48" fill="white"/>
<path d="M27.2575 24.0002C27.2575 25.7675 25.8248 27.2002 24.0574 27.2002C22.2901 27.2002 20.8574 25.7675 20.8574 24.0002C20.8574 22.2329 22.2901 20.8002 24.0574 20.8002C25.8248 20.8002 27.2575 22.2329 27.2575 24.0002Z" fill="#5A6D7B"/>
<path fill-rule="evenodd" clip-rule="evenodd" d="M24.0847 28.1572C20.869 28.1572 18.036 26.5068 16.3912 24.0002C18.036 21.4934 20.8691 19.8429 24.0848 19.8429C27.3005 19.8429 30.1336 21.4933 31.7784 24C30.1336 26.5067 27.3005 28.1572 24.0847 28.1572ZM24.0848 17.8429C28.4555 17.8429 32.2412 20.3476 34.0848 23.9999C32.2412 27.6524 28.4555 30.1572 24.0847 30.1572C19.714 30.1572 15.9284 27.6525 14.0848 24.0002C15.9283 20.3477 19.7141 17.8429 24.0848 17.8429Z" fill="#5A6D7B"/>
</g>
<defs>
<clipPath id="clip0">
<rect width="48" height="48" fill="white" transform="translate(0.0847778)"/>
</clipPath>
</defs>
</svg>
