<svg width="24" height="24" viewBox="0 0 24 24" fill="none" xmlns="http://www.w3.org/2000/svg">
<path fill-rule="evenodd" clip-rule="evenodd" d="M4.00011 7C5.10468 7 6.00011 6.10457 6.00011 5C6.00011 3.89543 5.10468 3 4.00011 3C2.89554 3 2.00011 3.89543 2.00011 5C2.00011 6.10457 2.89554 7 4.00011 7ZM7.06892 4.8999C7.06892 5.28826 6.99425 5.65937 6.85833 6H22.0569V4H6.92998C7.02025 4.28408 7.06892 4.58638 7.06892 4.8999ZM12.0001 13C13.1047 13 14.0001 12.1046 14.0001 11C14.0001 9.89547 13.1047 9.00004 12.0001 9.00004C10.8955 9.00004 10.0001 9.89547 10.0001 11C10.0001 12.1046 10.8955 13 12.0001 13ZM15 11.0001C15 11.3507 14.9399 11.6872 14.8294 11.9999H22V9.99989H14.8292C14.9398 10.3127 15 10.6494 15 11.0001ZM2 11.9999H9.17062C9.06012 11.6872 9 11.3507 9 11.0001C9 10.6494 9.06019 10.3127 9.17079 9.99989H2V11.9999ZM22 17C22 18.1046 21.1046 19 20 19C18.8954 19 18 18.1046 18 17C18 15.8954 18.8954 15 20 15C21.1046 15 22 15.8954 22 17ZM17.1707 16H2V18H17.1707C17.0602 17.6872 17 17.3506 17 17C17 16.6494 17.0602 16.3128 17.1707 16Z" fill="#5A6D7B"/>
</svg>
