<svg width="24" height="24" viewBox="0 0 24 24" fill="none" xmlns="http://www.w3.org/2000/svg">
<path fill-rule="evenodd" clip-rule="evenodd" d="M12 22C17.5228 22 22 17.5228 22 12C22 6.47715 17.5228 2 12 2C6.47715 2 2 6.47715 2 12C2 17.5228 6.47715 22 12 22ZM12 20C16.4183 20 20 16.4183 20 12C20 7.58172 16.4183 4 12 4C7.58172 4 4 7.58172 4 12C4 16.4183 7.58172 20 12 20Z" fill="#5A6D7B"/>
<path fill-rule="evenodd" clip-rule="evenodd" d="M13 13.874C14.7252 13.4299 16 11.8638 16 10C16 7.79086 14.2091 6 12 6C9.79086 6 8 7.79086 8 10V10H10V10C10 8.89543 10.8954 8 12 8C13.1046 8 14 8.89543 14 10C14 11.1046 13.1046 12 12 12H11.9999H11V15H13V13.874ZM11 18.5V16.5H13V18.5H11Z" fill="#5A6D7B"/>
</svg>
