<svg width="48" height="48" viewBox="0 0 48 48" fill="none" xmlns="http://www.w3.org/2000/svg">
<rect width="48" height="48" fill="white"/>
<path fill-rule="evenodd" clip-rule="evenodd" d="M24 34C29.5228 34 34 29.5228 34 24C34 18.4772 29.5228 14 24 14C18.4772 14 14 18.4772 14 24C14 29.5228 18.4772 34 24 34ZM24 32C28.4183 32 32 28.4183 32 24C32 19.5817 28.4183 16 24 16C19.5817 16 16 19.5817 16 24C16 28.4183 19.5817 32 24 32Z" fill="#5A6D7B"/>
<path fill-rule="evenodd" clip-rule="evenodd" d="M25 25.874C26.7252 25.4299 28 23.8638 28 22C28 19.7909 26.2091 18 24 18C21.7909 18 20 19.7909 20 22V22H22V22C22 20.8954 22.8954 20 24 20C25.1046 20 26 20.8954 26 22C26 23.1046 25.1046 24 24 24H23.9999H23V27H25V25.874ZM23 30.5V28.5H25V30.5H23Z" fill="#5A6D7B"/>
</svg>
