<svg width="24" height="24" viewBox="0 0 24 24" fill="none" xmlns="http://www.w3.org/2000/svg">
<path fill-rule="evenodd" clip-rule="evenodd" d="M5.07489 8.24146C3.79506 9.25043 2.74075 10.5327 2 12.0003C3.8436 15.6526 7.62927 18.1573 11.9999 18.1573C12.9202 18.1573 13.8145 18.0463 14.6703 17.8368L12.943 16.1096C12.6329 16.1411 12.3183 16.1573 11.9999 16.1573C8.78426 16.1573 5.95122 14.5069 4.30638 12.0003C4.8971 11.1 5.64108 10.3102 6.50101 9.66758L5.07489 8.24146ZM8.71881 11.8854C8.71753 11.9235 8.71689 11.9618 8.71689 12.0002C8.71689 13.855 10.2205 15.3587 12.0754 15.3587C12.1138 15.3587 12.1521 15.358 12.1902 15.3567L8.71881 11.8854ZM15.4241 12.2579L11.8176 8.65146C11.9027 8.64501 11.9886 8.64172 12.0754 8.64172C13.9302 8.64172 15.4338 10.1454 15.4338 12.0002C15.4338 12.0869 15.4305 12.1728 15.4241 12.2579ZM17.499 14.3328C18.3589 13.6902 19.1029 12.9003 19.6936 12.0001C18.0488 9.49345 15.2157 7.84302 12.0001 7.84302C11.6817 7.84302 11.3671 7.8592 11.057 7.89078L9.32967 6.16349C10.1854 5.95407 11.0798 5.84302 12.0001 5.84302C16.3707 5.84302 20.1564 8.34771 22 12C21.2592 13.4676 20.2049 14.7499 18.9251 15.7589L17.499 14.3328Z" fill="#5A6D7B"/>
<rect x="4.87573" y="3.29248" width="22.3896" height="2.23896" transform="rotate(45 4.87573 3.29248)" fill="#5A6D7B"/>
</svg>
