<svg width="49" height="49" viewBox="0 0 49 49" fill="none" xmlns="http://www.w3.org/2000/svg">
<g clip-path="url(#clip0)">
<path fill-rule="evenodd" clip-rule="evenodd" d="M18.0369 20.8447C16.7571 21.8537 15.7028 23.136 14.962 24.6036C16.8056 28.2559 20.5913 30.7606 24.962 30.7606C25.8822 30.7606 26.7766 30.6495 27.6323 30.4401L25.905 28.7128C25.5949 28.7444 25.2803 28.7606 24.962 28.7606C21.7463 28.7606 18.9133 27.1102 17.2684 24.6035C17.8591 23.7033 18.6031 22.9135 19.463 22.2708L18.0369 20.8447ZM21.6809 24.4887C21.6796 24.5268 21.6789 24.565 21.6789 24.6035C21.6789 26.4583 23.1826 27.9619 25.0374 27.9619C25.0758 27.9619 25.1141 27.9613 25.1522 27.96L21.6809 24.4887ZM28.3861 24.8612L24.7797 21.2547C24.8647 21.2483 24.9507 21.245 25.0374 21.245C26.8922 21.245 28.3959 22.7486 28.3959 24.6035C28.3959 24.6902 28.3926 24.7761 28.3861 24.8612ZM30.461 26.9361C31.3209 26.2934 32.0649 25.5036 32.6557 24.6033C31.0108 22.0967 28.1778 20.4463 24.9621 20.4463C24.6437 20.4463 24.3291 20.4625 24.019 20.4941L22.2917 18.7668C23.1475 18.5573 24.0418 18.4463 24.9621 18.4463C29.3328 18.4463 33.1184 20.951 34.962 24.6033C34.2213 26.0709 33.167 27.3532 31.8871 28.3622L30.461 26.9361Z" fill="#5A6D7B"/>
<rect x="17.8376" y="15.8958" width="22.3896" height="2.23896" transform="rotate(45 17.8376 15.8958)" fill="#5A6D7B"/>
</g>
<defs>
<clipPath id="clip0">
<rect width="48" height="48" fill="white" transform="translate(0.962036 0.695801)"/>
</clipPath>
</defs>
</svg>
