<svg width="24" height="25" viewBox="0 0 24 25" fill="none" xmlns="http://www.w3.org/2000/svg">
<path fill-rule="evenodd" clip-rule="evenodd" d="M11 2.5H13V4.03846C15.8377 4.51454 18 6.98251 18 9.95551V14.9555H16V12.9821V12.98V9.98212C16 7.77298 14.2091 5.98212 12 5.98212C9.79086 5.98212 8 7.77298 8 9.98212V12.98V12.9821V14.9555H6V9.95551C6 6.98251 8.16229 4.51454 11 4.03846V2.5Z" fill="#5A6D7B"/>
<path fill-rule="evenodd" clip-rule="evenodd" d="M8 12.9822H6.5C5.39543 12.9822 4.5 13.8776 4.5 14.9822V17.9822H19.5V14.9822C19.5 13.8776 18.6046 12.9822 17.5 12.9822H16V14.98H8V12.9822ZM17.5162 14.9822H6.48389V15.9822H17.5162V14.9822ZM9.5 18.9822C9.50006 20.3628 10.6193 21.4821 12 21.4821C13.3807 21.4821 14.4999 20.3628 14.5 18.9822H9.5Z" fill="#5A6D7B"/>
</svg>
