<svg width="49" height="49" viewBox="0 0 49 49" fill="none" xmlns="http://www.w3.org/2000/svg">
<g clip-path="url(#clip0)">
<path fill-rule="evenodd" clip-rule="evenodd" d="M23.0531 14.6777H25.0531V16.2162C27.8908 16.6923 30.0531 19.1602 30.0531 22.1332V25.2229C30.9157 25.4449 31.5531 26.228 31.5531 27.1599V30.1599H16.5531V27.1599C16.5531 26.228 17.1905 25.4449 18.0531 25.2229V22.1332C18.0531 19.1602 20.2154 16.6923 23.0531 16.2162V14.6777ZM24.0531 18.1599C21.844 18.1599 20.0531 19.9507 20.0531 22.1599V25.1599H28.0531V22.1599C28.0531 19.9507 26.2622 18.1599 24.0531 18.1599ZM29.5693 27.1599H18.537V28.1599H29.5693V27.1599ZM21.5531 31.1599C21.5532 32.5406 22.6724 33.6598 24.0531 33.6598C25.4338 33.6598 26.553 32.5406 26.5531 31.1599H21.5531Z" fill="#5A6D7B"/>
</g>
<defs>
<clipPath id="clip0">
<rect width="48" height="48" fill="white" transform="translate(0.303101 0.177734)"/>
</clipPath>
</defs>
</svg>
