<svg width="49" height="49" viewBox="0 0 49 49" fill="none" xmlns="http://www.w3.org/2000/svg">
<g clip-path="url(#clip0)">
<rect x="0.962036" y="0.695923" width="48" height="48" fill="white"/>
<path fill-rule="evenodd" clip-rule="evenodd" d="M17.844 25.414C16.0866 27.1713 16.0866 30.0206 17.844 31.7779C19.6013 33.5353 22.4506 33.5353 24.2079 31.7779L27.0364 28.9495C27.4083 28.5776 27.7015 28.1568 27.916 27.7078C28.2744 27.5365 28.6149 27.3152 28.9268 27.0436C28.6149 27.3151 28.2744 27.5365 27.916 27.7077C28.715 26.035 28.4218 23.971 27.0364 22.5855C26.3822 21.9314 25.5768 21.5208 24.7328 21.3536L27.0364 19.05C28.0127 18.0737 29.5956 18.0737 30.5719 19.05C31.5482 20.0263 31.5482 21.6092 30.5719 22.5855L29.0872 24.0702C29.3637 24.9249 29.4256 25.8338 29.2731 26.7128L31.9861 23.9998C33.7435 22.2424 33.7435 19.3932 31.9861 17.6358C30.2287 15.8784 27.3795 15.8784 25.6221 17.6358L22.7937 20.4642C22.4218 20.8361 22.1286 21.2569 21.9141 21.7059C21.4651 21.9204 21.0443 22.2136 20.6724 22.5855L20.6723 22.5856C21.0442 22.2137 21.4651 21.9205 21.9141 21.706C21.1151 23.3787 21.4083 25.4427 22.7937 26.8282C23.4478 27.4823 24.2532 27.893 25.0973 28.0601L22.7937 30.3637C21.8174 31.34 20.2345 31.34 19.2582 30.3637C18.2819 29.3874 18.2819 27.8045 19.2582 26.8282L20.7428 25.3435C20.4664 24.4889 20.4044 23.5799 20.557 22.7009L17.844 25.414ZM25.0974 28.06L25.6221 27.5353C26.5985 26.559 26.5985 24.9761 25.6221 23.9998C25.3008 23.6785 24.9138 23.4629 24.5044 23.3531C24.5602 23.0719 24.697 22.8035 24.915 22.5856L25.7946 21.706C25.4538 21.5432 25.0969 21.4258 24.7327 21.3537L24.2079 21.8784C23.2316 22.8547 23.2316 24.4377 24.2079 25.414C24.5292 25.7353 24.9162 25.9508 25.3257 26.0606C25.2699 26.3419 25.133 26.6102 24.9151 26.8281L24.0355 27.7077C24.3762 27.8705 24.7332 27.9879 25.0974 28.06ZM29.1577 26.8281C29.1523 26.8335 29.1469 26.8389 29.1415 26.8443C29.1469 26.8389 29.1523 26.8336 29.1577 26.8282L29.1577 26.8281Z" fill="#5A6D7B"/>
</g>
<defs>
<clipPath id="clip0">
<rect width="48" height="48" fill="white" transform="translate(0.962036 0.695923)"/>
</clipPath>
</defs>
</svg>
