<svg width="24" height="24" viewBox="0 0 24 24" fill="none" xmlns="http://www.w3.org/2000/svg">
<path fill-rule="evenodd" clip-rule="evenodd" d="M3.72414 12.5442C1.66735 14.601 1.66735 17.9357 3.72414 19.9924C5.78092 22.0492 9.11563 22.0492 11.1724 19.9925L14.4828 16.6821C14.918 16.2468 15.2612 15.7543 15.5122 15.2288C15.9322 15.0282 16.3311 14.7688 16.6965 14.4505C16.3311 14.7687 15.9322 15.0282 15.5122 15.2288C16.4474 13.2711 16.1043 10.8553 14.4828 9.23383C13.7172 8.46826 12.7746 7.98764 11.7867 7.79199L14.4828 5.09591C15.6254 3.95326 17.478 3.95326 18.6207 5.09592C19.7634 6.23857 19.7634 8.09119 18.6207 9.23385L16.8831 10.9715C17.2066 11.9718 17.2791 13.0356 17.1006 14.0643L20.2759 10.889C22.3326 8.83223 22.3326 5.49753 20.2759 3.44074C18.2191 1.38396 14.8844 1.38396 12.8276 3.44074L9.51724 6.75109C9.08198 7.18635 8.73883 7.67885 8.48779 8.20435C7.96227 8.45539 7.46976 8.79855 7.03449 9.23383L7.03441 9.2339C7.4697 8.79861 7.96223 8.45545 8.48776 8.2044C7.55258 10.1621 7.89574 12.5779 9.51724 14.1994C10.2828 14.9649 11.2254 15.4455 12.2133 15.6412L9.51723 18.3373C8.37457 19.4799 6.52196 19.4799 5.3793 18.3373C4.23664 17.1946 4.23664 15.342 5.3793 14.1993L7.11692 12.4617C6.79337 11.4614 6.72088 10.3976 6.89944 9.36887L3.72414 12.5442ZM12.2134 15.6411L12.8276 15.0269C13.9702 13.8843 13.9702 12.0317 12.8276 10.889C12.4515 10.513 11.9986 10.2607 11.5194 10.1321C11.5847 9.80301 11.7448 9.48898 11.9999 9.23391L13.0294 8.20443C12.6306 8.01393 12.2128 7.87648 11.7866 7.79206L11.1724 8.40626C10.0298 9.54892 10.0298 11.4015 11.1724 12.5442C11.5485 12.9202 12.0014 13.1725 12.4806 13.3011C12.4153 13.6302 12.2552 13.9442 12.0001 14.1993L10.9706 15.2288C11.3694 15.4193 11.7872 15.5567 12.2134 15.6411ZM16.9656 14.1993C16.9593 14.2056 16.9529 14.2119 16.9465 14.2182C16.9529 14.212 16.9592 14.2057 16.9655 14.1994L16.9656 14.1993Z" fill="#5A6D7B"/>
</svg>
