<svg width="49" height="49" viewBox="0 0 49 49" fill="none" xmlns="http://www.w3.org/2000/svg">
<path fill-rule="evenodd" clip-rule="evenodd" d="M22.6295 24.9341C20.9596 22.5909 21.1758 19.3168 23.278 17.2146C25.6211 14.8714 29.4201 14.8714 31.7633 17.2146C34.1064 19.5577 34.1064 23.3567 31.7633 25.6998C29.661 27.8021 26.387 28.0182 24.0438 26.3483L22.5709 27.8212L23.9851 29.2354L22.5709 30.6496L21.1567 29.2354L19.7425 30.6496L21.1567 32.0638L19.7425 33.478L18.3282 32.0638L17.6211 31.3567L16.914 30.6496L19.7425 27.8212L21.1567 26.407L22.6295 24.9341ZM24.6922 24.2856C26.2543 25.8477 28.787 25.8477 30.3491 24.2856C31.9112 22.7235 31.9112 20.1909 30.3491 18.6288C28.787 17.0667 26.2543 17.0667 24.6922 18.6288C23.1301 20.1909 23.1301 22.7235 24.6922 24.2856Z" fill="#5A6D7B"/>
</svg>
