<svg width="24" height="24" viewBox="0 0 24 24" fill="none" xmlns="http://www.w3.org/2000/svg">
<path fill-rule="evenodd" clip-rule="evenodd" d="M9.251 12.9622C7.58107 10.619 7.79722 7.34487 9.89945 5.24264C12.2426 2.89949 16.0416 2.89949 18.3847 5.24264C20.7279 7.58579 20.7279 11.3848 18.3847 13.7279C16.2825 15.8301 13.0084 16.0463 10.6652 14.3764L9.19234 15.8492L10.6066 17.2635L9.19234 18.6777L7.77813 17.2635L6.36392 18.6777L7.77813 20.0919L6.36392 21.5061L4.9497 20.0919L4.2426 19.3848L3.53549 18.6777L6.36392 15.8492L7.77813 14.435L9.251 12.9622ZM11.3137 12.3137C12.8758 13.8758 15.4084 13.8758 16.9705 12.3137C18.5326 10.7516 18.5326 8.21895 16.9705 6.65685C15.4084 5.09476 12.8758 5.09476 11.3137 6.65685C9.75157 8.21895 9.75157 10.7516 11.3137 12.3137Z" fill="#5A6D7B"/>
</svg>
