<svg width="49" height="48" viewBox="0 0 49 48" fill="none" xmlns="http://www.w3.org/2000/svg">
<g clip-path="url(#clip0)">
<rect x="0.00274658" width="48" height="48" fill="white"/>
<path fill-rule="evenodd" clip-rule="evenodd" d="M21.0026 20.0001C21.0026 18.4079 22.2429 17.1054 23.8101 17.0061C23.8738 17.002 23.938 17 24.0027 17H24.0027C25.2454 17 26.3116 17.7555 26.767 18.8323C26.8085 18.9303 26.8449 19.0311 26.8759 19.1342C26.9584 19.4083 27.0028 19.699 27.0028 20.0001V21H21.0026V20.0001ZM21.0026 23L19.0027 23L18.0027 23V31H30.0027V23L29.0027 23L27.0028 23H21.0026ZM29.0027 21L30.0027 21C31.1073 21 32.0027 21.8954 32.0027 23V31C32.0027 32.1046 31.1073 33 30.0027 33H18.0027C16.8982 33 16.0027 32.1046 16.0027 31V23C16.0027 21.8954 16.8982 21 18.0027 21L19.0027 21V20C19.0027 17.2386 21.2413 15 24.0027 15C26.7642 15 29.0027 17.2386 29.0027 20V21ZM25.5027 27C25.5027 27.8284 24.8312 28.5 24.0027 28.5C23.1743 28.5 22.5027 27.8284 22.5027 27C22.5027 26.1716 23.1743 25.5 24.0027 25.5C24.8312 25.5 25.5027 26.1716 25.5027 27Z" fill="#5A6D7B"/>
</g>
<defs>
<clipPath id="clip0">
<rect width="48" height="48" fill="white" transform="translate(0.00274658)"/>
</clipPath>
</defs>
</svg>
