<svg width="24" height="24" viewBox="0 0 24 24" fill="none" xmlns="http://www.w3.org/2000/svg">
<g clip-path="url(#clip0)">
<path fill-rule="evenodd" clip-rule="evenodd" d="M6.34315 15.9706C3.21895 12.8464 3.21895 7.78105 6.34315 4.65685C9.46734 1.53266 14.5327 1.53266 17.6569 4.65685C20.781 7.78105 20.781 12.8464 17.6569 15.9706L13.4142 20.2132L12 21.6274L10.5858 20.2132L6.34315 15.9706ZM16.2426 6.07107C18.5858 8.41421 18.5858 12.2132 16.2426 14.5563L12 18.799L7.75736 14.5563C5.41421 12.2132 5.41421 8.41421 7.75736 6.07107C10.1005 3.72792 13.8995 3.72792 16.2426 6.07107ZM9.87868 12.435C11.0503 13.6066 12.9497 13.6066 14.1213 12.435C15.2929 11.2634 15.2929 9.36394 14.1213 8.19237C12.9497 7.02079 11.0503 7.02079 9.87868 8.19237C8.70711 9.36394 8.70711 11.2634 9.87868 12.435Z" fill="#5A6D7B"/>
</g>
<defs>
<clipPath id="clip0">
<rect width="24" height="24" fill="white"/>
</clipPath>
</defs>
</svg>
