<svg width="49" height="49" viewBox="0 0 49 49" fill="none" xmlns="http://www.w3.org/2000/svg">
<g clip-path="url(#clip0)">
<rect x="0.962036" y="0.695801" width="48" height="48" fill="white"/>
<path fill-rule="evenodd" clip-rule="evenodd" d="M19.6189 28.6664C16.4947 25.5422 16.4947 20.4768 19.6189 17.3527C22.7431 14.2285 27.8084 14.2285 30.9326 17.3527C34.0568 20.4768 34.0568 25.5422 30.9326 28.6664L26.69 32.909L25.2758 34.3232L23.8615 32.909L19.6189 28.6664ZM29.5184 18.7669C31.8615 21.11 31.8615 24.909 29.5184 27.2521L25.2758 31.4948L21.0331 27.2521C18.69 24.909 18.69 21.11 21.0331 18.7669C23.3763 16.4237 27.1753 16.4237 29.5184 18.7669ZM23.1544 25.1308C24.326 26.3024 26.2255 26.3024 27.3971 25.1308C28.5686 23.9592 28.5686 22.0597 27.3971 20.8882C26.2255 19.7166 24.326 19.7166 23.1544 20.8882C21.9829 22.0597 21.9829 23.9592 23.1544 25.1308Z" fill="#5A6D7B"/>
</g>
<defs>
<clipPath id="clip0">
<rect width="48" height="48" fill="white" transform="translate(0.962036 0.695801)"/>
</clipPath>
</defs>
</svg>
