<svg width="49" height="49" viewBox="0 0 49 49" fill="none" xmlns="http://www.w3.org/2000/svg">
<g clip-path="url(#clip0)">
<rect x="0.692261" y="0.285645" width="48" height="48" fill="white"/>
<path d="M31.5206 29.8438H31.8856L32.1648 30.0789L34.0206 31.6417V30.1069V21.7911C34.0206 21.2389 33.5729 20.7911 33.0206 20.7911H23.0206C22.4683 20.7911 22.0206 21.2389 22.0206 21.7911V28.8438C22.0206 29.3961 22.4683 29.8438 23.0206 29.8438H31.5206Z" stroke="#5A6D7B" stroke-width="2"/>
<rect x="19.0397" y="17.601" width="11.0784" height="10.3914" fill="white"/>
<path d="M18.5206 25.8438H18.1557L17.8765 26.0789L16.0206 27.6417V26.1069V17.7911C16.0206 17.2389 16.4683 16.7911 17.0206 16.7911H27.0206C27.5729 16.7911 28.0206 17.2389 28.0206 17.7911V24.8438C28.0206 25.3961 27.5729 25.8438 27.0206 25.8438H18.5206Z" stroke="#5A6D7B" stroke-width="2"/>
</g>
<defs>
<clipPath id="clip0">
<rect width="48" height="48" fill="white" transform="translate(0.692261 0.285645)"/>
</clipPath>
</defs>
</svg>
