<svg width="24" height="24" viewBox="0 0 24 24" fill="none" xmlns="http://www.w3.org/2000/svg">
<path fill-rule="evenodd" clip-rule="evenodd" d="M8 15.0063V16.0526C8 17.1572 8.89543 18.0526 10 18.0526H18.5L20 19.3158L22 21V18.3853V17.3158V9C22 7.89543 21.1046 7 20 7H17.0088V9H20V9.00061V16.0508V16.6953V16.7011L19.7883 16.5228L19.2299 16.0526H18.5L10 16.0526V16.0508V15.0063H8Z" fill="#5A6D7B"/>
<path fill-rule="evenodd" clip-rule="evenodd" d="M5.5 12.0526H4.77006L4.21173 12.5228L4 12.7011V12.6953V12.0508V5.00061V5H14V5.00061V12.0508V12.0526L5.5 12.0526ZM2 17L4 15.3158L5.5 14.0526H14C15.1046 14.0526 16 13.1572 16 12.0526V5C16 3.89543 15.1046 3 14 3H4C2.89543 3 2 3.89543 2 5V13.3158V14.3853V17Z" fill="#5A6D7B"/>
</svg>
