<svg width="49" height="49" viewBox="0 0 49 49" fill="none" xmlns="http://www.w3.org/2000/svg">
<g clip-path="url(#clip0)">
<rect x="0.962036" y="0.695801" width="48" height="48" fill="white"/>
<path fill-rule="evenodd" clip-rule="evenodd" d="M25.712 15.1958H23.712V16.7343C20.8743 17.2103 18.712 19.6783 18.712 22.6513V25.741C17.8494 25.963 17.212 26.7461 17.212 27.678V30.678H32.212V27.678C32.212 26.7461 31.5746 25.963 30.712 25.741V23.5253C30.3924 23.6076 30.0573 23.6514 29.712 23.6514C29.3667 23.6514 29.0317 23.6076 28.712 23.5253V25.6779H20.712V22.6779C20.712 20.4688 22.5029 18.6779 24.712 18.6779C25.0881 18.6779 25.4521 18.7298 25.7971 18.8268C25.9424 18.1335 26.2672 17.5062 26.7207 16.9958C26.3964 16.8806 26.0593 16.7925 25.712 16.7343V15.1958ZM19.1959 27.678H30.2282V28.678H19.1959V27.678ZM24.712 34.1779C23.3314 34.1779 22.2121 33.0586 22.212 31.678H27.212C27.212 33.0586 26.0927 34.1779 24.712 34.1779Z" fill="#5A6D7B"/>
<circle cx="29.712" cy="19.6514" r="3" fill="#0095E9"/>
</g>
<defs>
<clipPath id="clip0">
<rect width="48" height="48" fill="white" transform="translate(0.962036 0.695801)"/>
</clipPath>
</defs>
</svg>
