<svg width="24" height="24" viewBox="0 0 24 24" fill="none" xmlns="http://www.w3.org/2000/svg">
<path fill-rule="evenodd" clip-rule="evenodd" d="M12.75 2.5H10.75V4.58296C7.91229 5.05904 5.75 7.527 5.75 10.5V13.563C4.88739 13.785 4.25 14.5681 4.25 15.5V18.5H7.75H15.75H19.25V15.5C19.25 14.5681 18.6126 13.785 17.75 13.563V11.874C17.4304 11.9562 17.0953 12 16.75 12C16.4047 12 16.0696 11.9562 15.75 11.874V13.5V15.5H17.25V16.5H15.75H7.75H6.25V15.5H7.75V13.5V10.5C7.75 8.29086 9.54086 6.5 11.75 6.5C12.1753 6.5 12.5851 6.56638 12.9697 6.68936C13.2001 6.0246 13.6009 5.43947 14.1199 4.9862C13.6872 4.79997 13.2282 4.66318 12.75 4.58296V2.5ZM11.75 21.5C12.8546 21.5 13.75 20.6046 13.75 19.5H9.75C9.75 20.6046 10.6454 21.5 11.75 21.5Z" fill="#5A6D7B"/>
<circle cx="16.75" cy="8" r="3" fill="#4A90E2"/>
</svg>
