<svg width="49" height="48" viewBox="0 0 49 48" fill="none" xmlns="http://www.w3.org/2000/svg">
<g clip-path="url(#clip0)">
<rect x="0.0300903" width="48" height="48" fill="white"/>
<path fill-rule="evenodd" clip-rule="evenodd" d="M24.7801 14.5089H22.7801V16.0474C19.9424 16.5235 17.7801 18.9914 17.7801 21.9644V25.0541C16.9175 25.2761 16.2801 26.0592 16.2801 26.9911V29.9911H31.2801V26.9911C31.2801 26.0592 30.6427 25.2761 29.7801 25.0541V22.8385C29.4605 22.9207 29.1254 22.9645 28.7801 22.9645C28.4348 22.9645 28.0997 22.9207 27.7801 22.8385V24.991H19.7801V21.991C19.7801 19.7819 21.571 17.991 23.7801 17.991C24.1562 17.991 24.5201 18.0429 24.8652 18.14C25.0105 17.4466 25.3353 16.8193 25.7887 16.3089C25.4645 16.1937 25.1273 16.1056 24.7801 16.0474V14.5089ZM18.264 26.9911H29.2962V27.9911H18.264V26.9911ZM23.7801 33.491C22.3994 33.491 21.2802 32.3717 21.2801 30.9911H26.2801C26.28 32.3717 25.1608 33.491 23.7801 33.491Z" fill="#5A6D7B"/>
<circle cx="28.7801" cy="18.9645" r="3" fill="#0095E9"/>
</g>
<defs>
<clipPath id="clip0">
<rect width="48" height="48" fill="white" transform="translate(0.0300903)"/>
</clipPath>
</defs>
</svg>
