<svg width="24" height="24" viewBox="0 0 24 24" fill="none" xmlns="http://www.w3.org/2000/svg">
<path fill-rule="evenodd" clip-rule="evenodd" d="M11 2.5H13V4.58296C15.8377 5.05904 18 7.527 18 10.5V13.563C18.8626 13.785 19.5 14.5681 19.5 15.5V18.5H16H8H4.5V15.5C4.5 14.5681 5.13739 13.785 6 13.563V10.5C6 7.527 8.16229 5.05904 11 4.58296V2.5ZM12 6.5C9.79086 6.5 8 8.29086 8 10.5V13.5V15.5H6.5V16.5H8H16H17.5V15.5H16V13.5V10.5C16 8.29086 14.2091 6.5 12 6.5ZM14 19.5C14 20.6046 13.1046 21.5 12 21.5C10.8954 21.5 10 20.6046 10 19.5H14Z" fill="#5A6D7B"/>
</svg>
