<svg width="49" height="48" viewBox="0 0 49 48" fill="none" xmlns="http://www.w3.org/2000/svg">
<g clip-path="url(#clip0)">
<rect x="0.0574341" width="48" height="48" fill="white"/>
<path fill-rule="evenodd" clip-rule="evenodd" d="M22.8074 14.5089H24.8074V16.0474C27.6451 16.5235 29.8074 18.9914 29.8074 21.9644V25.0541C30.67 25.2761 31.3074 26.0592 31.3074 26.9911V29.9911H16.3074V26.9911C16.3074 26.0592 16.9448 25.2761 17.8074 25.0541V21.9644C17.8074 18.9914 19.9697 16.5235 22.8074 16.0474V14.5089ZM23.8074 17.991C21.5983 17.991 19.8074 19.7819 19.8074 21.991V24.991H27.8074V21.991C27.8074 19.7819 26.0166 17.991 23.8074 17.991ZM29.3236 26.9911H18.2913V27.9911H29.3236V26.9911ZM21.3074 30.9911C21.3075 32.3717 22.4268 33.491 23.8074 33.491C25.1881 33.491 26.3074 32.3717 26.3074 30.9911H21.3074Z" fill="#5A6D7B"/>
</g>
<defs>
<clipPath id="clip0">
<rect width="48" height="48" fill="white" transform="translate(0.0574341)"/>
</clipPath>
</defs>
</svg>
