<svg width="49" height="49" viewBox="0 0 49 49" fill="none" xmlns="http://www.w3.org/2000/svg">
<g clip-path="url(#clip0)">
<rect x="0.328369" y="0.177734" width="48" height="48" fill="white"/>
<path fill-rule="evenodd" clip-rule="evenodd" d="M29.3284 33.1777H19.3284C18.2238 33.1777 17.3284 32.2823 17.3284 31.1777V17.1777C17.3284 16.0732 18.2238 15.1777 19.3284 15.1777H25.6268C26.081 15.1777 26.5216 15.3323 26.8762 15.616L30.5778 18.5772C31.0522 18.9568 31.3284 19.5314 31.3284 20.139V20.6777V31.1777C31.3284 32.2823 30.4329 33.1777 29.3284 33.1777ZM25.3284 20.6777V17.1777H19.3284V31.1777H29.3284V20.6777H25.3284ZM20.3284 23.0503H28.3284V27.2009H20.3284V23.0503ZM22.1248 23.7961H21.1168V26.3961H21.8048V25.5721H22.1248C22.2608 25.5721 22.3915 25.5548 22.5168 25.5201C22.6422 25.4828 22.7528 25.4281 22.8488 25.3561C22.9448 25.2815 23.0208 25.1868 23.0768 25.0721C23.1355 24.9575 23.1648 24.8201 23.1648 24.6601C23.1648 24.4975 23.1368 24.3615 23.0808 24.2521C23.0248 24.1401 22.9488 24.0508 22.8528 23.9841C22.7595 23.9148 22.6488 23.8668 22.5208 23.8401C22.3955 23.8108 22.2635 23.7961 22.1248 23.7961ZM22.3928 24.9321C22.3288 24.9961 22.2288 25.0281 22.0928 25.0281H21.8048V24.3401H22.0928C22.2208 24.3401 22.3195 24.3641 22.3888 24.4121C22.4582 24.4601 22.4928 24.5428 22.4928 24.6601C22.4928 24.7775 22.4595 24.8681 22.3928 24.9321ZM24.2273 23.7961H23.4953V26.3961H24.2673C24.4433 26.3961 24.6059 26.3708 24.7553 26.3201C24.9046 26.2695 25.0339 26.1908 25.1433 26.0841C25.2553 25.9775 25.3419 25.8415 25.4033 25.6761C25.4646 25.5108 25.4953 25.3135 25.4953 25.0841C25.4953 24.8548 25.4633 24.6588 25.3993 24.4961C25.3379 24.3335 25.2513 24.2001 25.1393 24.0961C25.0273 23.9921 24.8939 23.9161 24.7393 23.8681C24.5846 23.8201 24.4139 23.7961 24.2273 23.7961ZM24.4233 25.8121C24.3513 25.8335 24.2739 25.8441 24.1913 25.8441H24.1833V24.3481H24.1913C24.2739 24.3481 24.3513 24.3588 24.4233 24.3801C24.4979 24.3988 24.5619 24.4348 24.6153 24.4881C24.6686 24.5415 24.7113 24.6161 24.7433 24.7121C24.7753 24.8081 24.7913 24.9321 24.7913 25.0841C24.7913 25.2361 24.7753 25.3615 24.7433 25.4601C24.7113 25.5588 24.6686 25.6361 24.6153 25.6921C24.5619 25.7481 24.4979 25.7881 24.4233 25.8121ZM26.0537 23.7961H27.8177V24.3721H26.7417V24.8681H27.6617V25.4441H26.7417V26.3961H26.0537V23.7961Z" fill="#5A6D7B"/>
</g>
<defs>
<clipPath id="clip0">
<rect width="48" height="48" fill="white" transform="translate(0.328369 0.177734)"/>
</clipPath>
</defs>
</svg>
