<svg width="24" height="24" viewBox="0 0 24 24" fill="none" xmlns="http://www.w3.org/2000/svg">
<g clip-path="url(#clip0)">
<rect width="48" height="48" fill="white"/>
<path fill-rule="evenodd" clip-rule="evenodd" d="M7 21H17C18.1046 21 19 20.1046 19 19V8.5V7.96125C19 7.35368 18.7238 6.77906 18.2494 6.39951L14.5478 3.43826C14.1932 3.15456 13.7526 3 13.2984 3H7C5.89543 3 5 3.89543 5 5V19C5 20.1046 5.89543 21 7 21ZM13 5V8.5H17V19H7V5H13Z" fill="#5A6D7B"/>
<path d="M7.60254 12.6768H8.92553C9.10753 12.6768 9.28078 12.696 9.44528 12.7345C9.61328 12.7695 9.75853 12.8325 9.88103 12.9235C10.007 13.011 10.1068 13.1283 10.1803 13.2753C10.2538 13.4188 10.2905 13.5973 10.2905 13.8108C10.2905 14.0208 10.252 14.201 10.175 14.3515C10.1015 14.502 10.0018 14.6262 9.87578 14.7242C9.74978 14.8187 9.60453 14.8905 9.44003 14.9395C9.27553 14.985 9.10403 15.0077 8.92553 15.0077H8.50554V16.0892H7.60254V12.6768ZM8.88353 14.2938C9.06203 14.2938 9.19328 14.2518 9.27728 14.1678C9.36478 14.0838 9.40853 13.9648 9.40853 13.8108C9.40853 13.6568 9.36303 13.5483 9.27203 13.4853C9.18103 13.4223 9.05153 13.3908 8.88353 13.3908H8.50554V14.2938H8.88353Z" fill="#5A6D7B"/>
<path d="M10.7242 12.6768H11.685C11.93 12.6768 12.154 12.7083 12.357 12.7713C12.56 12.8343 12.735 12.934 12.882 13.0705C13.029 13.207 13.1427 13.382 13.2232 13.5955C13.3072 13.809 13.3492 14.0663 13.3492 14.3673C13.3492 14.6682 13.309 14.9272 13.2285 15.1442C13.148 15.3612 13.0342 15.5397 12.8872 15.6797C12.7437 15.8197 12.574 15.923 12.378 15.9895C12.182 16.056 11.9685 16.0892 11.7375 16.0892H10.7242V12.6768ZM11.6377 15.3647C11.7462 15.3647 11.8477 15.3507 11.9422 15.3227C12.0402 15.2912 12.1242 15.2387 12.1942 15.1652C12.2642 15.0917 12.3202 14.9902 12.3622 14.8607C12.4042 14.7312 12.4252 14.5667 12.4252 14.3673C12.4252 14.1678 12.4042 14.005 12.3622 13.879C12.3202 13.753 12.2642 13.655 12.1942 13.585C12.1242 13.515 12.0402 13.4678 11.9422 13.4433C11.8477 13.4153 11.7462 13.4013 11.6377 13.4013H11.6272V15.3647H11.6377Z" fill="#5A6D7B"/>
<path d="M14.0822 12.6768H16.3974V13.4328H14.9852V14.0838H16.1926V14.8397H14.9852V16.0892H14.0822V12.6768Z" fill="#5A6D7B"/>
</g>
<defs>
<clipPath id="clip0">
<rect width="24" height="24" fill="white"/>
</clipPath>
</defs>
</svg>
