<svg width="49" height="48" viewBox="0 0 49 48" fill="none" xmlns="http://www.w3.org/2000/svg">
<g clip-path="url(#clip0)">
<rect x="0.0300903" width="48" height="48" fill="white"/>
<path fill-rule="evenodd" clip-rule="evenodd" d="M16.5438 31.451C16.2813 31.451 16.0724 31.2354 16.0724 30.9729V27.5249C16.0724 26.989 16.4958 26.5529 17.0278 26.4879C17.7565 26.399 18.465 26.2447 19.1473 26.0312C19.521 25.9142 19.933 26.0004 20.2099 26.2773L21.6357 27.7031C21.9151 27.9825 22.3343 28.0742 22.6961 27.9153C25.4288 26.7153 27.7049 24.6674 29.1913 22.1046C29.4091 21.7292 29.3321 21.2574 29.0252 20.9504L27.2695 19.1947C26.9933 18.9186 26.9068 18.5079 27.0225 18.1349C27.2311 17.462 27.3821 16.7638 27.4697 16.046C27.5346 15.5141 27.9708 15.0907 28.5067 15.0907H32.1794C32.3797 15.0907 32.5438 15.2507 32.5438 15.451V15.451C32.5438 24.2876 25.3803 31.451 16.5438 31.451V31.451Z" fill="#5A6D7B"/>
</g>
<defs>
<clipPath id="clip0">
<rect width="48" height="48" fill="white" transform="translate(0.0300903)"/>
</clipPath>
</defs>
</svg>
