<svg width="49" height="49" viewBox="0 0 49 49" fill="none" xmlns="http://www.w3.org/2000/svg">
<g clip-path="url(#clip0)">
<rect x="0.962036" y="0.695923" width="48" height="48" fill="white"/>
<path fill-rule="evenodd" clip-rule="evenodd" d="M16.962 34.4463C16.6995 34.4463 16.4907 34.2306 16.4907 33.9681V30.5202C16.4907 29.9843 16.9141 29.5481 17.446 29.4832C18.1747 29.3942 18.8833 29.24 19.5656 29.0264C19.9393 28.9095 20.3513 28.9956 20.6282 29.2725L22.054 30.6983C22.3334 30.9778 22.7525 31.0694 23.1143 30.9105C25.8471 29.7105 28.1231 27.6626 29.6096 25.0999C29.8274 24.7244 29.7504 24.2526 29.4435 23.9457L27.6878 22.19C27.4116 21.9138 27.3251 21.5032 27.4408 21.1301C27.6494 20.4573 27.8004 19.759 27.888 19.0413C27.9529 18.5093 28.389 18.0859 28.925 18.0859H32.5977C32.798 18.0859 32.962 18.246 32.962 18.4463C32.962 27.2828 25.7986 34.4463 16.962 34.4463Z" fill="#5A6D7B"/>
</g>
<defs>
<clipPath id="clip0">
<rect width="48" height="48" fill="white" transform="translate(0.962036 0.695923)"/>
</clipPath>
</defs>
</svg>
