<svg width="24" height="24" viewBox="0 0 24 24" fill="none" xmlns="http://www.w3.org/2000/svg">
<path fill-rule="evenodd" clip-rule="evenodd" d="M4.3136 20.1511C4.05109 20.1511 3.84229 19.9354 3.84229 19.6729V16.225C3.84229 15.6891 4.26564 15.253 4.79761 15.188C5.5263 15.0991 6.23482 14.9448 6.91713 14.7313C7.29086 14.6143 7.70284 14.7004 7.97975 14.9774L9.40556 16.4032C9.68498 16.6826 10.1041 16.7742 10.4659 16.6154C13.1986 15.4153 15.4747 13.3675 16.9612 10.8047C17.1789 10.4292 17.102 9.95743 16.795 9.65051L15.0393 7.89481C14.7632 7.61863 14.6767 7.20802 14.7923 6.83496C15.0009 6.16209 15.1519 5.46388 15.2395 4.7461C15.3045 4.21413 15.7406 3.79077 16.2765 3.79077H19.9492C20.1495 3.79077 20.3136 3.95082 20.3136 4.15112V4.15112C20.3136 12.9877 13.1502 20.1511 4.3136 20.1511V20.1511Z" fill="#5A6D7B"/>
</svg>
