<svg width="49" height="49" viewBox="0 0 49 49" fill="none" xmlns="http://www.w3.org/2000/svg">
<g clip-path="url(#clip0)">
<path fill-rule="evenodd" clip-rule="evenodd" d="M24.3031 34.1777C29.8259 34.1777 34.3031 29.7006 34.3031 24.1777C34.3031 18.6549 29.8259 14.1777 24.3031 14.1777C18.7803 14.1777 14.3031 18.6549 14.3031 24.1777C14.3031 29.7006 18.7803 34.1777 24.3031 34.1777ZM24.3031 32.1777C28.7214 32.1777 32.3031 28.596 32.3031 24.1777C32.3031 19.7595 28.7214 16.1777 24.3031 16.1777C19.8848 16.1777 16.3031 19.7595 16.3031 24.1777C16.3031 28.596 19.8848 32.1777 24.3031 32.1777ZM25.3031 25.1777V28.1777H23.3031V25.1777H25.3031ZM25.3031 31.2998V29.2998H23.3031V31.2998H25.3031Z" fill="#5A6D7B"/>
<path fill-rule="evenodd" clip-rule="evenodd" d="M28.2117 22.6777C28.2117 25.163 26.197 27.1777 23.7117 27.1777C23.5739 27.1777 23.4375 27.1715 23.3029 27.1594V25.1445C23.4359 25.1664 23.5725 25.1777 23.7117 25.1777C25.0924 25.1777 26.2117 24.0584 26.2117 22.6777C26.2117 21.297 25.0924 20.1777 23.7117 20.1777C22.6338 20.1777 21.7152 20.8599 21.3641 21.8161L19.5338 21.0026C20.1983 19.3469 21.8185 18.1777 23.7117 18.1777C26.197 18.1777 28.2117 20.1925 28.2117 22.6777Z" fill="#5A6D7B"/>
</g>
<defs>
<clipPath id="clip0">
<rect width="48" height="48" fill="white" transform="translate(0.303101 0.177734)"/>
</clipPath>
</defs>
</svg>
