<svg width="49" height="49" viewBox="0 0 49 49" fill="none" xmlns="http://www.w3.org/2000/svg">
<g clip-path="url(#clip0)">
<rect x="0.962036" y="0.695801" width="48" height="48" fill="white"/>
<path fill-rule="evenodd" clip-rule="evenodd" d="M24.8953 32.6958C24.6192 32.6958 24.3463 32.6818 24.0773 32.6545C20.0433 32.2448 16.8953 28.8379 16.8953 24.6958C16.8953 20.2775 20.4771 16.6958 24.8953 16.6958C27.8664 16.6958 30.4592 18.3154 31.8389 20.7199L33.863 18.6958V24.6958H27.863L30.355 22.2039C29.4087 20.134 27.3199 18.6958 24.8953 18.6958C21.5816 18.6958 18.8953 21.3821 18.8953 24.6958C18.8953 28.0095 21.5816 30.6958 24.8953 30.6958C27.1164 30.6958 29.0557 29.4889 30.093 27.6951H32.3141C31.1274 30.6273 28.2529 32.6958 24.8953 32.6958Z" fill="#5A6D7B"/>
</g>
<defs>
<clipPath id="clip0">
<rect width="48" height="48" fill="white" transform="translate(0.962036 0.695801)"/>
</clipPath>
</defs>
</svg>
