<svg width="26" height="24" viewBox="0 0 26 24" fill="none" xmlns="http://www.w3.org/2000/svg">
<path fill-rule="evenodd" clip-rule="evenodd" d="M11.9449 20C11.6687 20 11.3958 19.986 11.1269 19.9587C7.09287 19.549 3.94489 16.1421 3.94489 12C3.94489 7.58172 7.52662 4 11.9449 4C14.916 4.00001 17.5087 5.61962 18.8885 8.02411L20.9126 6V12H14.9126L17.4045 9.50808C16.4582 7.43821 14.3695 6 11.9449 6C8.63115 6 5.94486 8.68629 5.94486 12C5.94486 15.3137 8.63115 18 11.9449 18C14.166 18 16.1052 16.7931 17.1426 14.9993H19.3636C18.177 17.9315 15.3025 20 11.9449 20Z" fill="#5A6D7B"/>
</svg>
