<svg width="49" height="49" viewBox="0 0 49 49" fill="none" xmlns="http://www.w3.org/2000/svg">
<g clip-path="url(#clip0)">
<rect x="0.962036" y="0.695923" width="48" height="48" fill="white"/>
<path fill-rule="evenodd" clip-rule="evenodd" d="M17.962 31.4816L17.962 21.4816H31.962V31.4816H17.962ZM15.962 21.4816C15.962 20.377 16.8575 19.4816 17.962 19.4816H31.962C33.0666 19.4816 33.962 20.377 33.962 21.4816V31.4816C33.962 32.5861 33.0666 33.4816 31.962 33.4816H17.962C16.8575 33.4816 15.962 32.5861 15.962 31.4816V21.4816Z" fill="#5A6D7B"/>
<mask id="mask0" mask-type="alpha" maskUnits="userSpaceOnUse" x="17" y="21" width="15" height="11">
<rect x="18.462" y="21.9816" width="13" height="9.14282" fill="#C4C4C4" stroke="#5A6D7B"/>
</mask>
<g mask="url(#mask0)">
<path d="M15.962 22.4363L24.5295 27.7406L33.962 22.4816" stroke="#5A6D7B" stroke-width="1.7"/>
</g>
</g>
<defs>
<clipPath id="clip0">
<rect width="48" height="48" fill="white" transform="translate(0.962036 0.695923)"/>
</clipPath>
</defs>
</svg>
