<svg width="24" height="24" viewBox="0 0 24 24" fill="none" xmlns="http://www.w3.org/2000/svg">
<g clip-path="url(#clip0)">
<path fill-rule="evenodd" clip-rule="evenodd" d="M16.9325 5.65687C20.0567 8.78106 20.0567 13.8464 16.9325 16.9706C13.8083 20.0948 8.74296 20.0948 5.61877 16.9706C2.49457 13.8464 2.49457 8.78106 5.61877 5.65687C8.74296 2.53267 13.8083 2.53267 16.9325 5.65687ZM15.5308 7.05847C17.881 9.40858 17.881 13.2189 15.5308 15.569C13.1807 17.9191 9.37045 17.9191 7.02034 15.569C4.67022 13.2189 4.67022 9.40858 7.02034 7.05847C9.37045 4.70835 13.1807 4.70835 15.5308 7.05847Z" fill="#5A6D7B"/>
<rect x="19.761" y="21.2131" width="6" height="2" transform="rotate(-135 19.761 21.2131)" fill="#5A6D7B"/>
</g>
<defs>
<clipPath id="clip0">
<rect width="24" height="24" fill="white"/>
</clipPath>
</defs>
</svg>
