<svg width="48" height="49" viewBox="0 0 48 49" fill="none" xmlns="http://www.w3.org/2000/svg">
<g clip-path="url(#clip0)">
<rect y="0.0351562" width="48" height="48" fill="white"/>
<path fill-rule="evenodd" clip-rule="evenodd" d="M29.6568 18.3783C32.781 21.5025 32.781 26.5678 29.6568 29.692C26.5326 32.8162 21.4673 32.8162 18.3431 29.692C15.2189 26.5678 15.2189 21.5025 18.3431 18.3783C21.4673 15.2541 26.5326 15.2541 29.6568 18.3783ZM28.2552 19.7799C30.6053 22.13 30.6053 25.9403 28.2552 28.2904C25.9051 30.6405 22.0948 30.6405 19.7447 28.2904C17.3946 25.9403 17.3946 22.13 19.7447 19.7799C22.0948 17.4298 25.9051 17.4298 28.2552 19.7799Z" fill="#5A6D7B"/>
<rect x="32.4853" y="33.9347" width="6" height="2" transform="rotate(-135 32.4853 33.9347)" fill="#5A6D7B"/>
</g>
<defs>
<clipPath id="clip0">
<rect width="48" height="48" fill="white" transform="translate(0 0.0351562)"/>
</clipPath>
</defs>
</svg>
