<svg width="49" height="49" viewBox="0 0 49 49" fill="none" xmlns="http://www.w3.org/2000/svg">
<g clip-path="url(#clip0)">
<rect x="0.962036" y="0.695923" width="48" height="48" fill="white"/>
<path fill-rule="evenodd" clip-rule="evenodd" d="M29.9326 18.3528C33.0568 21.477 33.0568 26.5423 29.9326 29.6665C26.8084 32.7907 21.7431 32.7907 18.6189 29.6665C15.4947 26.5423 15.4947 21.477 18.6189 18.3528C21.7431 15.2286 26.8084 15.2286 29.9326 18.3528ZM28.531 19.7544C30.8811 22.1045 30.8811 25.9148 28.531 28.2649C26.1809 30.615 22.3706 30.615 20.0205 28.2649C17.6703 25.9148 17.6703 22.1045 20.0205 19.7544C22.3706 17.4043 26.1809 17.4043 28.531 19.7544Z" fill="#5A6D7B"/>
<rect x="32.761" y="33.9092" width="6" height="2" transform="rotate(-135 32.761 33.9092)" fill="#5A6D7B"/>
</g>
<defs>
<clipPath id="clip0">
<rect width="48" height="48" fill="white" transform="translate(0.962036 0.695923)"/>
</clipPath>
</defs>
</svg>
