<svg width="49" height="49" viewBox="0 0 49 49" fill="none" xmlns="http://www.w3.org/2000/svg">
<g clip-path="url(#clip0)">
<rect x="0.692261" y="0.5" width="48" height="48" fill="white"/>
<path fill-rule="evenodd" clip-rule="evenodd" d="M21.6921 20.5001C21.6921 18.9079 22.9325 17.6054 24.4996 17.5061C24.5633 17.502 24.6275 17.5 24.6922 17.5H24.6923C25.9349 17.5 27.0011 18.2555 27.4565 19.3323C27.498 19.4303 27.5344 19.5311 27.5654 19.6342C27.6479 19.9083 27.6923 20.199 27.6923 20.5001V21.5H21.6921V20.5001ZM21.6921 23.5L19.6923 23.5L18.6923 23.5V31.5H30.6923V23.5L29.6923 23.5L27.6923 23.5H21.6921ZM29.6923 21.5L30.6923 21.5C31.7968 21.5 32.6923 22.3954 32.6923 23.5V31.5C32.6923 32.6046 31.7968 33.5 30.6923 33.5H18.6923C17.5877 33.5 16.6923 32.6046 16.6923 31.5V23.5C16.6923 22.3954 17.5877 21.5 18.6923 21.5L19.6923 21.5V20.5C19.6923 17.7386 21.9308 15.5 24.6923 15.5C27.4537 15.5 29.6923 17.7386 29.6923 20.5V21.5ZM26.7704 27.5C26.7704 28.6046 25.875 29.5 24.7704 29.5C23.6658 29.5 22.7704 28.6046 22.7704 27.5C22.7704 26.3954 23.6658 25.5 24.7704 25.5C25.875 25.5 26.7704 26.3954 26.7704 27.5Z" fill="#5A6D7B"/>
</g>
<defs>
<clipPath id="clip0">
<rect width="48" height="48" fill="white" transform="translate(0.692261 0.5)"/>
</clipPath>
</defs>
</svg>
