<svg width="24" height="24" viewBox="0 0 24 24" fill="none" xmlns="http://www.w3.org/2000/svg">
<path fill-rule="evenodd" clip-rule="evenodd" d="M14.5 7.5C14.5 6.11929 13.3807 5 12 5C10.6193 5 9.5 6.11929 9.5 7.5V9H14.5V7.5ZM16.5 11H14.5H9.5H7.5L6 11V19H18V11L16.5 11ZM7.5 9L6 9C4.89543 9 4 9.89543 4 11V19C4 20.1046 4.89543 21 6 21H18C19.1046 21 20 20.1046 20 19V11C20 9.89543 19.1046 9 18 9L16.5 9V7.5C16.5 5.01472 14.4853 3 12 3C9.51472 3 7.5 5.01472 7.5 7.5V9ZM14.0781 15C14.0781 16.1046 13.1827 17 12.0781 17C10.9736 17 10.0781 16.1046 10.0781 15C10.0781 13.8954 10.9736 13 12.0781 13C13.1827 13 14.0781 13.8954 14.0781 15Z" fill="#5A6D7B"/>
</svg>
