<svg width="24" height="24" viewBox="0 0 24 24" fill="none" xmlns="http://www.w3.org/2000/svg">
<path fill-rule="evenodd" clip-rule="evenodd" d="M22.2926 7.5L17.3132 11V8.48344H15.373L11.8746 11.9818L15.373 15.4802H17.3132V13.0001L22.2926 16.5001L17.3132 20.0001V17.4802H14.5446L14.5446 17.4803L14.5446 17.4802L11.1242 14.0599L12.5379 12.6462L11.8741 11.9823L6.41287 17.4436L6.41031 17.441V17.4436H2V15.4436H5.58435L10.4599 10.5681L9.7095 9.81776L8.2958 11.2315L5.58435 8.52002H2V6.52002H6.41031V6.52267L6.41287 6.52011L10.4604 10.5676L14.5446 6.48344L14.5446 6.4834L14.5446 6.48344H17.3132V4L22.2926 7.5Z" fill="#5A6D7B"/>
</svg>
