<svg width="49" height="49" viewBox="0 0 49 49" fill="none" xmlns="http://www.w3.org/2000/svg">
<g clip-path="url(#clip0)">
<rect x="0.230103" y="0.726807" width="48" height="48" fill="white"/>
<path fill-rule="evenodd" clip-rule="evenodd" d="M34.2301 24.7268C34.2301 30.2497 29.7529 34.7268 24.2301 34.7268C18.7073 34.7268 14.2301 30.2497 14.2301 24.7268C14.2301 19.204 18.7073 14.7268 24.2301 14.7268C29.7529 14.7268 34.2301 19.204 34.2301 24.7268ZM32.2301 24.7268C32.2301 29.1451 28.6484 32.7268 24.2301 32.7268C19.8118 32.7268 16.2301 29.1451 16.2301 24.7268C16.2301 20.3085 19.8118 16.7268 24.2301 16.7268C28.6484 16.7268 32.2301 20.3085 32.2301 24.7268ZM20.7301 23.7268C21.5585 23.7268 22.2301 23.0552 22.2301 22.2268C22.2301 21.3984 21.5585 20.7268 20.7301 20.7268C19.9017 20.7268 19.2301 21.3984 19.2301 22.2268C19.2301 23.0552 19.9017 23.7268 20.7301 23.7268ZM29.2301 22.2268C29.2301 23.0552 28.5585 23.7268 27.7301 23.7268C26.9017 23.7268 26.2301 23.0552 26.2301 22.2268C26.2301 21.3984 26.9017 20.7268 27.7301 20.7268C28.5585 20.7268 29.2301 21.3984 29.2301 22.2268ZM27.2301 26.7268C27.2301 28.3837 25.887 29.7268 24.2301 29.7268C22.5732 29.7268 21.2301 28.3837 21.2301 26.7268H27.2301Z" fill="#364754"/>
</g>
<defs>
<clipPath id="clip0">
<rect width="48" height="48" fill="white" transform="translate(0.230103 0.726807)"/>
</clipPath>
</defs>
</svg>
