<svg width="24" height="24" viewBox="0 0 24 24" fill="none" xmlns="http://www.w3.org/2000/svg">
<path fill-rule="evenodd" clip-rule="evenodd" d="M12.4483 2.4733C12.2649 2.10167 11.735 2.10167 11.5516 2.4733L8.7663 8.11685C8.69346 8.26442 8.55268 8.3667 8.38983 8.39037L2.1618 9.29535C1.75169 9.35494 1.58794 9.85893 1.88469 10.1482L6.39134 14.5411C6.50918 14.656 6.56295 14.8215 6.53513 14.9837L5.47126 21.1865C5.40121 21.595 5.82992 21.9064 6.19674 21.7136L11.7673 18.785C11.9129 18.7084 12.0869 18.7084 12.2326 18.785L17.8031 21.7136C18.1699 21.9064 18.5986 21.595 18.5286 21.1865L17.4647 14.9837C17.4369 14.8215 17.4907 14.656 17.6085 14.5411L22.1151 10.1482C22.4119 9.85893 22.2482 9.35494 21.838 9.29535L15.61 8.39037C15.4472 8.3667 15.3064 8.26442 15.2335 8.11685L12.4483 2.4733ZM13.9168 10.3248L11.9999 6.44078L10.083 10.3248L5.79672 10.9477L8.89831 13.971L8.16613 18.2399L11.9999 16.2244L15.8337 18.2399L15.1015 13.971L18.2031 10.9477L13.9168 10.3248Z" fill="#5A6D7B"/>
</svg>
