<svg width="24" height="24" viewBox="0 0 24 24" fill="none" xmlns="http://www.w3.org/2000/svg">
<mask id="path-1-inside-1" fill="white">
<path fill-rule="evenodd" clip-rule="evenodd" d="M14.8292 5H9.17065C9.58249 3.83481 10.6937 3 11.9999 3C13.3062 3 14.4174 3.83481 14.8292 5Z"/>
</mask>
<path fill-rule="evenodd" clip-rule="evenodd" d="M14.8292 5H9.17065C9.58249 3.83481 10.6937 3 11.9999 3C13.3062 3 14.4174 3.83481 14.8292 5Z" fill="#FAE7E5"/>
<path d="M14.8292 5V7H17.6574L16.7149 4.33351L14.8292 5ZM9.17065 5L7.28497 4.33351L6.3425 7H9.17065V5ZM14.8292 3H9.17065V7H14.8292V3ZM11.0563 5.66649C11.1946 5.2754 11.5677 5 11.9999 5V1C9.81979 1 7.97042 2.39422 7.28497 4.33351L11.0563 5.66649ZM11.9999 5C12.4322 5 12.8053 5.2754 12.9436 5.66649L16.7149 4.33351C16.0295 2.39422 14.1801 1 11.9999 1V5Z" fill="#5A6D7B" mask="url(#path-1-inside-1)"/>
<path fill-rule="evenodd" clip-rule="evenodd" d="M7 5C5.89543 5 5 5.89543 5 7V19C5 20.1046 5.89543 21 7 21H17C18.1046 21 19 20.1046 19 19V7C19 5.89543 18.1046 5 17 5H7ZM17 7H7V19H17V7Z" fill="#5A6D7B"/>
<rect x="9" y="8" width="6" height="2" fill="#5A6D7B"/>
</svg>
