<svg width="49" height="49" viewBox="0 0 49 49" fill="none" xmlns="http://www.w3.org/2000/svg">
<g clip-path="url(#clip0)">
<rect x="0.692261" y="0.285645" width="48" height="48" fill="white"/>
<mask id="path-2-inside-1" fill="white">
<path fill-rule="evenodd" clip-rule="evenodd" d="M27.5216 17.2856H21.863C22.2749 16.1205 23.3861 15.2856 24.6923 15.2856C25.9985 15.2856 27.1098 16.1205 27.5216 17.2856Z"/>
</mask>
<path fill-rule="evenodd" clip-rule="evenodd" d="M27.5216 17.2856H21.863C22.2749 16.1205 23.3861 15.2856 24.6923 15.2856C25.9985 15.2856 27.1098 16.1205 27.5216 17.2856Z" fill="#FAE7E5"/>
<path d="M27.5216 17.2856V19.2856H30.3498L29.4073 16.6192L27.5216 17.2856ZM21.863 17.2856L19.9774 16.6192L19.0349 19.2856H21.863V17.2856ZM27.5216 15.2856H21.863V19.2856H27.5216V15.2856ZM23.7487 17.9521C23.8869 17.561 24.26 17.2856 24.6923 17.2856V13.2856C22.5122 13.2856 20.6628 14.6799 19.9774 16.6192L23.7487 17.9521ZM24.6923 17.2856C25.1246 17.2856 25.4977 17.561 25.6359 17.9521L29.4073 16.6192C28.7219 14.6799 26.8725 13.2856 24.6923 13.2856V17.2856Z" fill="#5A6D7B" mask="url(#path-2-inside-1)"/>
<path fill-rule="evenodd" clip-rule="evenodd" d="M19.6923 17.2856C18.5877 17.2856 17.6923 18.1811 17.6923 19.2856V31.2856C17.6923 32.3902 18.5877 33.2856 19.6923 33.2856H29.6923C30.7968 33.2856 31.6923 32.3902 31.6923 31.2856V19.2856C31.6923 18.1811 30.7968 17.2856 29.6923 17.2856H19.6923ZM29.6923 19.2856H19.6923V31.2856H29.6923V19.2856Z" fill="#5A6D7B"/>
<rect x="21.6923" y="20.2856" width="6" height="2" fill="#5A6D7B"/>
</g>
<defs>
<clipPath id="clip0">
<rect width="48" height="48" fill="white" transform="translate(0.692261 0.285645)"/>
</clipPath>
</defs>
</svg>
