<svg width="49" height="49" viewBox="0 0 49 49" fill="none" xmlns="http://www.w3.org/2000/svg">
<g clip-path="url(#clip0)">
<rect x="0.328369" y="0.177734" width="48" height="48" fill="white"/>
<mask id="path-2-inside-1" fill="white">
<path fill-rule="evenodd" clip-rule="evenodd" d="M27.1577 17.1777H21.4991C21.911 16.0125 23.0222 15.1777 24.3284 15.1777C25.6347 15.1777 26.7459 16.0125 27.1577 17.1777Z"/>
</mask>
<path fill-rule="evenodd" clip-rule="evenodd" d="M27.1577 17.1777H21.4991C21.911 16.0125 23.0222 15.1777 24.3284 15.1777C25.6347 15.1777 26.7459 16.0125 27.1577 17.1777Z" fill="#FAE7E5"/>
<path d="M27.1577 17.1777V19.1777H29.9859L29.0434 16.5112L27.1577 17.1777ZM21.4991 17.1777L19.6135 16.5112L18.671 19.1777H21.4991V17.1777ZM27.1577 15.1777H21.4991V19.1777H27.1577V15.1777ZM23.3848 17.8442C23.5231 17.4531 23.8962 17.1777 24.3284 17.1777V13.1777C22.1483 13.1777 20.2989 14.572 19.6135 16.5112L23.3848 17.8442ZM24.3284 17.1777C24.7607 17.1777 25.1338 17.4531 25.2721 17.8442L29.0434 16.5112C28.358 14.572 26.5086 13.1777 24.3284 13.1777V17.1777Z" fill="#5A6D7B" mask="url(#path-2-inside-1)"/>
<path fill-rule="evenodd" clip-rule="evenodd" d="M19.3284 17.1777C18.2238 17.1777 17.3284 18.0732 17.3284 19.1777V31.1777C17.3284 32.2823 18.2238 33.1777 19.3284 33.1777H29.3284C30.4329 33.1777 31.3284 32.2823 31.3284 31.1777V19.1777C31.3284 18.0732 30.4329 17.1777 29.3284 17.1777H19.3284ZM29.3284 19.1777H19.3284V31.1777H29.3284V19.1777Z" fill="#5A6D7B"/>
<rect x="21.3284" y="20.1777" width="6" height="2" fill="#5A6D7B"/>
</g>
<defs>
<clipPath id="clip0">
<rect width="48" height="48" fill="white" transform="translate(0.328369 0.177734)"/>
</clipPath>
</defs>
</svg>
