<svg width="49" height="49" viewBox="0 0 49 49" fill="none" xmlns="http://www.w3.org/2000/svg">
<g clip-path="url(#clip0)">
<rect x="0.692261" y="0.285645" width="48" height="48" fill="white"/>
<path fill-rule="evenodd" clip-rule="evenodd" d="M21.6935 22.7861C22.798 22.7861 23.6935 21.8907 23.6935 20.7861C23.6935 19.6816 22.798 18.7861 21.6935 18.7861C20.5889 18.7861 19.6935 19.6816 19.6935 20.7861C19.6935 21.8907 20.5889 22.7861 21.6935 22.7861ZM22.4901 24.7068C24.3176 24.3375 25.6935 22.7225 25.6935 20.7861C25.6935 18.577 23.9026 16.7861 21.6935 16.7861C19.4843 16.7861 17.6935 18.577 17.6935 20.7861C17.6935 22.7501 19.1088 24.3834 20.9751 24.7218C17.438 25.1321 14.6923 28.1379 14.6923 31.7851H16.6923C16.6923 28.9623 18.9806 26.6741 21.8034 26.6741C24.6261 26.6741 26.9144 28.9623 26.9145 31.7851H28.9145C28.9144 28.0894 26.0952 25.0522 22.4901 24.7068ZM29.0092 23.0449C29.5614 23.0449 30.0092 22.5972 30.0092 22.0449C30.0092 21.4926 29.5614 21.0449 29.0092 21.0449C28.4569 21.0449 28.0092 21.4926 28.0092 22.0449C28.0092 22.5972 28.4569 23.0449 29.0092 23.0449ZM32.0092 22.0449C32.0092 23.6725 30.713 24.9974 29.0965 25.0437C32.0016 25.0905 34.3422 27.4598 34.3423 30.376H32.3423C32.3422 28.5352 30.8498 27.043 29.009 27.043C28.8082 27.043 28.6115 27.0607 28.4204 27.0948C27.9897 26.4882 27.4776 25.9433 26.9 25.4762C27.5217 25.2083 28.2045 25.0552 28.9216 25.0436C27.3053 24.9973 26.0092 23.6725 26.0092 22.0449C26.0092 20.3881 27.3523 19.0449 29.0092 19.0449C30.666 19.0449 32.0092 20.3881 32.0092 22.0449Z" fill="#5A6D7B"/>
</g>
<defs>
<clipPath id="clip0">
<rect width="48" height="48" fill="white" transform="translate(0.692261 0.285645)"/>
</clipPath>
</defs>
</svg>
