<svg width="24" height="24" viewBox="0 0 24 24" fill="none" xmlns="http://www.w3.org/2000/svg">
<path fill-rule="evenodd" clip-rule="evenodd" d="M9.00122 10C10.1058 10 11.0012 9.10455 11.0012 8C11.0012 6.89545 10.1058 6 9.00122 6C7.89665 6 7.00122 6.89545 7.00122 8C7.00122 9.10455 7.89665 10 9.00122 10ZM9.79784 11.9207C11.6253 11.5513 13.0012 9.9364 13.0012 8C13.0012 5.79083 11.2104 4 9.00122 4C6.79208 4 5.00122 5.79083 5.00122 8C5.00122 9.96393 6.41653 11.5972 8.28282 11.9357C4.74573 12.346 2.00005 15.3518 2 18.999H4C4.00005 16.1762 6.28835 13.8879 9.11111 13.8879C11.9339 13.8879 14.2222 16.1762 14.2222 18.999H16.2222C16.2222 15.3033 13.403 12.2661 9.79784 11.9207ZM16.3169 10.2588C16.8692 10.2588 17.3169 9.8111 17.3169 9.25879C17.3169 8.70648 16.8692 8.25879 16.3169 8.25879C15.7646 8.25879 15.3169 8.70648 15.3169 9.25879C15.3169 9.8111 15.7646 10.2588 16.3169 10.2588ZM19.3169 9.25879C19.3169 10.8864 18.0207 12.2113 16.4043 12.2576C19.3093 12.3043 21.6499 14.6737 21.6501 17.5898H19.6501C19.6499 15.749 18.1576 14.2568 16.3167 14.2568C16.1159 14.2568 15.9192 14.2746 15.7282 14.3087C15.2974 13.702 14.7853 13.1572 14.2078 12.6901C14.8294 12.4221 15.5122 12.269 16.2294 12.2575C14.613 12.2112 13.3169 10.8864 13.3169 9.25879C13.3169 7.60193 14.66 6.25879 16.3169 6.25879C17.9738 6.25879 19.3169 7.60193 19.3169 9.25879Z" fill="#5A6D7B"/>
</svg>
