<svg width="49" height="49" viewBox="0 0 49 49" fill="none" xmlns="http://www.w3.org/2000/svg">
<path fill-rule="evenodd" clip-rule="evenodd" d="M29.6923 33.2856H19.6923C18.5877 33.2856 17.6923 32.3902 17.6923 31.2856V17.2856C17.6923 16.1811 18.5877 15.2856 19.6923 15.2856H25.9907C26.4448 15.2856 26.8855 15.4402 27.2401 15.7239L30.9417 18.6852C31.4161 19.0647 31.6923 19.6393 31.6923 20.2469V20.7856V31.2856C31.6923 32.3902 30.7968 33.2856 29.6923 33.2856ZM25.6923 20.7856V17.2856H19.6923V31.2856H29.6923V20.7856H25.6923ZM20.6923 23.2856H28.6923V25.2856H20.6923V23.2856ZM20.6923 27.2856H27.6923V29.2856H20.6923V27.2856Z" fill="#5A6D7B"/>
</svg>
