<svg width="49" height="48" viewBox="0 0 49 48" fill="none" xmlns="http://www.w3.org/2000/svg">
<g clip-path="url(#clip0)">
<rect x="0.0300903" width="48" height="48" fill="white"/>
<mask id="mask0" mask-type="alpha" maskUnits="userSpaceOnUse" x="22" y="24" width="13" height="7">
<rect x="23.1879" y="24.5898" width="11" height="5" fill="#C4C4C4" stroke="#5A6D7B"/>
</mask>
<g mask="url(#mask0)">
<circle cx="28.6879" cy="30.09" r="4.33333" stroke="#5A6D7B" stroke-width="2"/>
</g>
<path d="M29.3722 31.5C26.6328 31.5 25.7905 31.5 21.3722 31.5C16.9539 31.5 18.1899 31.5 13.3722 31.5C13.3722 27.0817 16.9539 23.5 21.3722 23.5C25.7905 23.5 29.3722 27.0817 29.3722 31.5Z" fill="white"/>
<mask id="mask1" mask-type="alpha" maskUnits="userSpaceOnUse" x="13" y="23" width="17" height="9">
<rect x="13.8723" y="24" width="15" height="7" fill="#C4C4C4" stroke="#5A6D7B"/>
</mask>
<g mask="url(#mask1)">
<circle cx="21.3722" cy="31.5" r="6.11111" stroke="#5A6D7B" stroke-width="2"/>
</g>
<circle cx="21.3723" cy="20.5" r="3" stroke="#5A6D7B" stroke-width="2"/>
<circle cx="28.6879" cy="21.7588" r="2" stroke="#5A6D7B" stroke-width="2"/>
</g>
<defs>
<clipPath id="clip0">
<rect width="48" height="48" fill="white" transform="translate(0.0300903)"/>
</clipPath>
</defs>
</svg>
