<svg width="24" height="24" viewBox="0 0 24 24" fill="none" xmlns="http://www.w3.org/2000/svg">
<path d="M15.1728 12.1573C15.1728 13.9246 13.7401 15.3573 11.9727 15.3573C10.2054 15.3573 8.77271 13.9246 8.77271 12.1573C8.77271 10.39 10.2054 8.95728 11.9727 8.95728C13.7401 8.95728 15.1728 10.39 15.1728 12.1573Z" fill="#5A6D7B"/>
<path fill-rule="evenodd" clip-rule="evenodd" d="M11.9999 16.3143C8.78427 16.3143 5.95121 14.6639 4.30638 12.1573C5.95119 9.65052 8.78431 8 12.0001 8C15.2157 8 18.0488 9.65044 19.6936 12.1571C18.0488 14.6638 15.2157 16.3143 11.9999 16.3143ZM12.0001 6C16.3707 6 20.1564 8.50471 22 12.157C20.1565 15.8095 16.3707 18.3143 11.9999 18.3143C7.62927 18.3143 3.8436 15.8096 2 12.1573C3.84355 8.50482 7.6293 6 12.0001 6Z" fill="#5A6D7B"/>
</svg>
