<svg width="49" height="49" viewBox="0 0 49 49" fill="none" xmlns="http://www.w3.org/2000/svg">
<g clip-path="url(#clip0)">
<path d="M28.1348 24.8531C28.1348 26.6204 26.7021 28.0531 24.9348 28.0531C23.1674 28.0531 21.7347 26.6204 21.7347 24.8531C21.7347 23.0858 23.1674 21.6531 24.9348 21.6531C26.7021 21.6531 28.1348 23.0858 28.1348 24.8531Z" fill="#5A6D7B"/>
<path fill-rule="evenodd" clip-rule="evenodd" d="M24.962 29.0101C21.7463 29.0101 18.9132 27.3597 17.2684 24.8531C18.9132 22.3463 21.7463 20.6958 24.9621 20.6958C28.1778 20.6958 31.0108 22.3462 32.6557 24.8529C31.0109 27.3596 28.1777 29.0101 24.962 29.0101ZM24.9621 18.6958C29.3328 18.6958 33.1185 21.2005 34.9621 24.8528C33.1185 28.5053 29.3328 31.0101 24.962 31.0101C20.5913 31.0101 16.8056 28.5054 14.962 24.8531C16.8056 21.2006 20.5913 18.6958 24.9621 18.6958Z" fill="#5A6D7B"/>
</g>
<defs>
<clipPath id="clip0">
<rect width="48" height="48" fill="white" transform="translate(0.962036 0.695801)"/>
</clipPath>
</defs>
</svg>
